<svg width="200" height="200" viewBox="0 0 200 200" fill="none" xmlns="http://www.w3.org/2000/svg">
<g clip-path="url(#clip0_1092_23035)">
<path d="M100.002 200.004C155.232 200.004 200.004 155.232 200.004 100.002C200.004 44.7725 155.232 0 100.002 0C44.7725 0 0 44.7725 0 100.002C0 155.232 44.7725 200.004 100.002 200.004Z" fill="#FCFCF7"/>
<path d="M15.8018 65.0375L18.5008 59.1334L19.8924 59.7702L17.9061 64.1139L19.6858 64.9278L21.5203 60.9173L22.8866 61.5414L21.0522 65.552L22.9499 66.4165L24.9657 62.0053L26.3658 62.6463L23.6373 68.6221L15.8018 65.0417V65.0375Z" fill="#151516"/>
<path d="M21.2715 54.1402L22.4945 52.1033L31.6795 53.5413L30.7011 55.1649L28.8498 54.8318L26.6189 58.5471L27.7744 60.0358L26.8382 61.5962L21.2715 54.136V54.1402ZM27.2683 54.5619L22.9879 53.8154L25.6447 57.2693L27.2725 54.5619H27.2683Z" fill="#151516"/>
<path d="M34.7202 48.797C33.9991 49.0416 33.3243 49.0248 32.6875 48.7464L33.3327 47.127C33.7587 47.2746 34.172 47.2662 34.5768 47.106C34.9817 46.9457 35.3823 46.6252 35.7829 46.1487C36.2004 45.651 36.4324 45.2209 36.4872 44.8624C36.542 44.5039 36.4408 44.213 36.1793 43.9979C35.9643 43.8208 35.7408 43.7533 35.4962 43.7997C35.2558 43.8461 34.9943 43.9937 34.7202 44.2467L33.2357 45.5878C32.6496 46.1191 32.0507 46.4143 31.4434 46.4776C30.8362 46.5409 30.2711 46.3553 29.7481 45.9167C29.3559 45.5878 29.0903 45.1914 28.9511 44.7317C28.8161 44.272 28.8246 43.7659 28.9848 43.2135C29.1451 42.661 29.4656 42.0959 29.9463 41.5224C30.5789 40.7675 31.2199 40.2783 31.8736 40.0548C32.5273 39.8313 33.1514 39.8187 33.746 40.0084L33.1809 41.611C32.8225 41.5013 32.4682 41.514 32.114 41.6574C31.7597 41.8007 31.4181 42.0664 31.0892 42.4628C30.7054 42.9225 30.4904 43.3274 30.444 43.6774C30.3976 44.0274 30.4988 44.3057 30.7434 44.5124C31.144 44.8455 31.6501 44.7485 32.2616 44.2172L33.7629 42.855C34.3406 42.3363 34.9268 42.058 35.5257 42.0158C36.1245 41.9736 36.6854 42.1718 37.1999 42.602C37.8325 43.1334 38.1361 43.7828 38.1066 44.563C38.0771 45.339 37.6722 46.195 36.8963 47.1228C36.1625 48.0042 35.4329 48.5651 34.716 48.8055L34.7202 48.797Z" fill="#151516"/>
<path d="M34.3574 36.7401L37.5287 33.6953C38.0095 33.2356 38.5156 32.9235 39.0469 32.7633C39.5783 32.603 40.097 32.5861 40.5946 32.7211C41.0923 32.856 41.5351 33.1259 41.9188 33.5266C42.3026 33.9272 42.5514 34.3742 42.6611 34.8719C42.7707 35.3695 42.7328 35.8755 42.5472 36.3943C42.3616 36.913 42.0243 37.4022 41.5393 37.8703L39.6078 39.7258L41.5688 41.767L40.329 42.9562L34.3616 36.7401H34.3574ZM40.4386 36.8033C40.7844 36.4702 40.97 36.1159 40.9953 35.7448C41.0206 35.3695 40.8983 35.0405 40.6242 34.7538C40.3458 34.4628 40.0169 34.3194 39.6373 34.3278C39.2578 34.3363 38.8951 34.505 38.5493 34.8381L36.6558 36.6557L38.5451 38.6252L40.4428 36.8075L40.4386 36.8033Z" fill="#151516"/>
<path d="M48.4849 35.0279C47.6795 35.1713 46.9119 35.0954 46.1824 34.8002C45.4528 34.505 44.8202 33.999 44.2846 33.282C43.7533 32.5651 43.4496 31.8145 43.3779 31.0301C43.3062 30.2457 43.4538 29.4823 43.8207 28.7528C44.1876 28.019 44.7485 27.378 45.4992 26.8171C46.2498 26.2604 47.0258 25.9062 47.8313 25.7628C48.6368 25.6194 49.4085 25.6911 50.1423 25.9863C50.8761 26.2815 51.5087 26.7833 52.0442 27.5003C52.5798 28.2172 52.8792 28.9679 52.9509 29.7522C53.0226 30.5409 52.875 31.3 52.5081 32.0295C52.1412 32.7633 51.5804 33.4043 50.8297 33.9652C50.0748 34.5303 49.2904 34.8846 48.4849 35.0279ZM46.9794 33.1893C47.4433 33.3832 47.9283 33.4381 48.4301 33.3495C48.932 33.2609 49.4169 33.0459 49.885 32.7001C50.3532 32.3542 50.699 31.9494 50.9225 31.4939C51.146 31.0385 51.2345 30.5577 51.1755 30.0601C51.1207 29.5625 50.914 29.0775 50.5598 28.6052C50.2056 28.1328 49.8007 27.7997 49.3368 27.6015C48.8729 27.4033 48.3922 27.3484 47.8903 27.437C47.3885 27.5256 46.9035 27.7406 46.4354 28.0865C45.9673 28.4323 45.6215 28.8371 45.398 29.2926C45.1745 29.748 45.0859 30.2288 45.1407 30.7306C45.1955 31.2325 45.398 31.7175 45.748 32.1898C46.1022 32.6621 46.5071 32.9953 46.9752 33.1893H46.9794Z" fill="#151516"/>
<path d="M51.9641 22.5029L55.7891 20.3353C56.3668 20.0064 56.9362 19.8292 57.4928 19.7955C58.0495 19.7618 58.5556 19.8714 59.0068 20.1202C59.458 20.369 59.8207 20.7359 60.0948 21.2167C60.4744 21.883 60.5714 22.562 60.3943 23.2452C60.2171 23.9326 59.7743 24.5272 59.0658 25.0375L60.4322 24.7591L63.2662 25.999L61.4528 27.028L58.2308 25.5435L56.2867 26.6442L57.7079 29.1492L56.215 29.9969L51.9683 22.5029H51.9641ZM57.8049 24.0296C58.2224 23.7934 58.5007 23.4982 58.6357 23.1397C58.7706 22.7813 58.7411 22.427 58.5387 22.077C58.3405 21.727 58.0537 21.5161 57.6742 21.4486C57.2946 21.3812 56.8982 21.4655 56.4807 21.7017L54.2034 22.9921L55.5234 25.3242L57.8007 24.0338L57.8049 24.0296Z" fill="#151516"/>
<path d="M63.9284 18.0074L61.1324 19.2093L60.5251 17.7923L67.6986 14.7137L68.3059 16.1307L65.5099 17.3326L68.2974 23.8355L66.7202 24.5145L63.9326 18.0158L63.9284 18.0074Z" fill="#151516"/>
<path d="M73.0416 21.5161C72.3036 21.3305 71.7469 20.9467 71.3632 20.369L72.7843 19.3611C73.0627 19.7153 73.4127 19.9346 73.8429 20.019C74.2688 20.1033 74.7833 20.0527 75.3779 19.8671C75.9978 19.6774 76.428 19.4454 76.6684 19.1713C76.9088 18.8972 76.9804 18.602 76.8834 18.2773C76.8033 18.0116 76.6473 17.8345 76.4196 17.7375C76.1918 17.6447 75.8966 17.6278 75.5255 17.6911L73.5477 18.0116C72.7675 18.1381 72.1054 18.0622 71.5614 17.7839C71.0173 17.5055 70.6462 17.0416 70.4438 16.3922C70.292 15.903 70.2836 15.4265 70.4185 14.9668C70.5535 14.5071 70.8402 14.0896 71.2746 13.7101C71.709 13.3347 72.2825 13.0353 72.9994 12.8118C73.9399 12.5208 74.7453 12.4618 75.4159 12.6262C76.0864 12.7949 76.6178 13.1197 77.0142 13.6046L75.6689 14.6421C75.4285 14.3553 75.1249 14.1739 74.7496 14.098C74.3742 14.0263 73.9399 14.0643 73.4507 14.2161C72.8813 14.3932 72.4807 14.6168 72.2488 14.8867C72.021 15.1566 71.9493 15.4433 72.0463 15.747C72.2024 16.2446 72.6789 16.4386 73.4802 16.3205L75.4791 15.9916C76.2424 15.8693 76.8877 15.9536 77.4148 16.2446C77.942 16.5356 78.3046 17.0037 78.5028 17.6447C78.7474 18.4333 78.6462 19.146 78.1992 19.7828C77.7522 20.4196 76.9509 20.9172 75.7912 21.2757C74.6947 21.6131 73.7796 21.689 73.0458 21.5034L73.0416 21.5161Z" fill="#151516"/>
<path d="M82.8972 10.4629L89.126 9.4845L89.3622 10.9942L84.8329 11.707L85.1998 14.0391L89.4043 13.377L89.6447 14.8994L85.4402 15.5615L85.9336 18.7075L84.2383 18.9732L82.9014 10.4629H82.8972Z" fill="#151516"/>
<path d="M94.0431 17.2989C93.2967 16.9616 92.7063 16.4681 92.2677 15.8103C91.8333 15.1524 91.5972 14.3806 91.5592 13.4866C91.5213 12.5926 91.6984 11.8039 92.0822 11.1123C92.4659 10.4207 93.0184 9.8809 93.7353 9.48449C94.4522 9.08807 95.2788 8.873 96.2108 8.83504C97.1428 8.79709 97.9862 8.94469 98.7327 9.28206C99.4791 9.61944 100.074 10.1128 100.512 10.7707C100.951 11.4286 101.191 12.2004 101.229 13.0944C101.267 13.9842 101.09 14.7771 100.706 15.4687C100.323 16.1603 99.7701 16.7001 99.0532 17.0965C98.3362 17.4929 97.5097 17.708 96.5777 17.746C95.6372 17.7839 94.7896 17.6363 94.0431 17.2989ZM93.8407 14.9289C94.1148 15.3506 94.486 15.6711 94.9498 15.882C95.4137 16.0928 95.9367 16.1898 96.5144 16.1645C97.0964 16.1392 97.6067 16.0043 98.0537 15.7554C98.4965 15.5066 98.8381 15.1566 99.0742 14.7138C99.3104 14.271 99.4158 13.7523 99.3905 13.1661C99.3652 12.5757 99.2176 12.0696 98.9477 11.6479C98.6778 11.2262 98.3109 10.9057 97.8471 10.6948C97.3832 10.484 96.8602 10.387 96.2825 10.4123C95.7005 10.4376 95.1902 10.5725 94.7432 10.8213C94.2962 11.0701 93.9546 11.4202 93.7184 11.863C93.478 12.3058 93.3726 12.8245 93.3979 13.4107C93.4232 13.9969 93.5708 14.5072 93.8449 14.9289H93.8407Z" fill="#151516"/>
<path d="M105.257 17.2482C104.561 16.8139 104.042 16.2445 103.696 15.5361C103.35 14.8276 103.22 14.0305 103.304 13.1407C103.388 12.2509 103.663 11.4918 104.139 10.8592C104.611 10.2266 105.231 9.76272 105.995 9.4633C106.758 9.16388 107.606 9.06267 108.538 9.14701C109.47 9.23136 110.284 9.49282 110.979 9.92719C111.675 10.3616 112.198 10.9309 112.544 11.6394C112.894 12.3479 113.025 13.1491 112.945 14.0347C112.864 14.9203 112.582 15.6837 112.11 16.3162C111.637 16.9488 111.017 17.4127 110.254 17.7121C109.491 18.0115 108.643 18.1128 107.715 18.0284C106.775 17.9398 105.961 17.6826 105.265 17.2482H105.257ZM105.371 14.874C105.586 15.3294 105.91 15.6921 106.34 15.9662C106.771 16.2403 107.277 16.4006 107.854 16.4554C108.432 16.5102 108.959 16.4427 109.432 16.253C109.904 16.0632 110.288 15.768 110.579 15.3589C110.87 14.9499 111.043 14.4522 111.097 13.866C111.152 13.2799 111.072 12.7569 110.861 12.3015C110.65 11.846 110.33 11.4833 109.896 11.2092C109.465 10.9351 108.959 10.7748 108.382 10.72C107.804 10.6652 107.277 10.7327 106.804 10.9224C106.332 11.1122 105.944 11.4074 105.649 11.8165C105.354 12.2256 105.177 12.7232 105.122 13.3094C105.067 13.8956 105.147 14.4185 105.362 14.874H105.371Z" fill="#151516"/>
<path d="M117.782 12.2087L114.804 11.5804L115.125 10.0748L122.762 11.69L122.442 13.1955L119.464 12.5672L118.001 19.4876L116.323 19.1333L117.786 12.2129L117.782 12.2087Z" fill="#151516"/>
<path d="M125.309 12.3943L129.603 13.8197C130.48 14.1107 131.091 14.5408 131.437 15.1102C131.783 15.6795 131.838 16.3036 131.61 16.991C131.483 17.3663 131.285 17.67 131.011 17.9061C130.737 18.1423 130.421 18.2857 130.054 18.3405C130.404 18.6273 130.632 18.9773 130.737 19.3948C130.842 19.8123 130.83 20.2214 130.695 20.6178C130.438 21.3853 130.003 21.8956 129.387 22.1444C128.772 22.3974 128.017 22.3721 127.119 22.0769L122.589 20.5714L125.309 12.3985V12.3943ZM127.566 20.6262C127.924 20.7443 128.236 20.757 128.502 20.6558C128.768 20.5545 128.949 20.3479 129.059 20.0274C129.168 19.7069 129.139 19.4286 128.987 19.184C128.831 18.9436 128.578 18.7622 128.228 18.6442L125.326 17.6784L124.668 19.6563L127.57 20.622L127.566 20.6262ZM128.514 17.1766C128.835 17.282 129.122 17.282 129.383 17.1724C129.64 17.0627 129.822 16.8603 129.919 16.5651C130.02 16.2614 129.999 15.9958 129.864 15.7723C129.725 15.5487 129.484 15.3801 129.139 15.2662L126.431 14.3637L125.799 16.2699L128.519 17.1766H128.514Z" fill="#151516"/>
<path d="M137.683 17.0332L139.833 18.0453L139.332 27.3316L137.615 26.5261L137.758 24.6537L133.837 22.8065L132.47 24.1054L130.825 23.3295L137.683 17.0332ZM137.872 23.0427L138.18 18.7074L135.013 21.6974L137.872 23.0427Z" fill="#151516"/>
<path d="M145.105 20.7865L146.568 21.6848L142.87 27.7153L146.821 30.1402L146.016 31.4518L140.601 28.1286L145.105 20.7865Z" fill="#151516"/>
<path d="M152.616 25.573L153.986 26.6104L149.719 32.253L153.417 35.049L152.485 36.2762L147.42 32.4428L152.62 25.573H152.616Z" fill="#151516"/>
<path d="M157.993 40.7548C157.74 39.9662 157.71 39.1903 157.908 38.427C158.102 37.6594 158.524 36.9678 159.165 36.3479C159.806 35.728 160.51 35.3273 161.278 35.1502C162.045 34.9731 162.817 35.0237 163.593 35.2978C164.369 35.5719 165.086 36.0442 165.744 36.7232C166.482 37.4823 166.963 38.2836 167.186 39.1144C167.41 39.9494 167.342 40.7422 166.984 41.5013L165.406 40.7295C165.596 40.2277 165.622 39.7258 165.478 39.2324C165.335 38.739 165.048 38.2709 164.618 37.8323C164.2 37.4022 163.749 37.107 163.26 36.9425C162.771 36.778 162.282 36.7569 161.792 36.8792C161.303 37.0015 160.852 37.263 160.443 37.6636C159.802 38.2878 159.494 38.9794 159.519 39.7385C159.545 40.5018 159.882 41.2187 160.531 41.8893C160.94 42.311 161.387 42.602 161.872 42.7538C162.357 42.9056 162.851 42.893 163.361 42.7158L164.133 44.272C163.361 44.622 162.56 44.6853 161.729 44.4491C160.898 44.2171 160.118 43.7237 159.384 42.9689C158.714 42.2815 158.254 41.5435 158.001 40.7548H157.993Z" fill="#151516"/>
<path d="M170.282 41.9695L171.332 43.3274L165.74 47.6585L168.578 51.3232L167.359 52.2679L163.467 47.2452L170.277 41.9695H170.282Z" fill="#151516"/>
<path d="M169.35 53.7228C169.531 52.7697 170.134 51.9726 171.159 51.3401L175.393 48.7212L176.291 50.1719L172.133 52.7444C171.509 53.1281 171.146 53.6131 171.045 54.1909C170.944 54.7686 171.074 55.3548 171.441 55.9494C171.791 56.5145 172.247 56.873 172.803 57.0206C173.36 57.1682 173.951 57.0543 174.575 56.6664L178.733 54.0939L179.631 55.5446L175.41 58.155C174.372 58.796 173.39 58.9943 172.466 58.7497C171.543 58.5051 170.75 57.8472 170.088 56.7802C169.413 55.6922 169.168 54.6716 169.35 53.7143V53.7228Z" fill="#151516"/>
<path d="M181.136 58.387L183.043 62.4903C183.431 63.3295 183.54 64.0717 183.363 64.7085C183.186 65.3453 182.769 65.8176 182.111 66.1255C181.752 66.2942 181.394 66.3574 181.035 66.3195C180.677 66.2815 180.356 66.1466 180.065 65.9189C180.099 66.3701 179.998 66.7749 179.766 67.1376C179.534 67.5003 179.23 67.7702 178.847 67.9473C178.113 68.2889 177.442 68.3184 176.839 68.0443C176.232 67.7702 175.73 67.2009 175.334 66.349L173.322 62.018L181.136 58.3912V58.387ZM176.692 65.67C176.852 66.0159 177.058 66.2478 177.311 66.3701C177.565 66.4924 177.843 66.484 178.146 66.3448C178.454 66.2014 178.64 65.9906 178.712 65.7122C178.783 65.4339 178.741 65.126 178.585 64.7887L177.299 62.018L175.41 62.8951L176.696 65.67H176.692ZM179.854 63.9916C179.998 64.2952 180.196 64.5061 180.453 64.62C180.711 64.7338 180.98 64.7254 181.263 64.5904C181.554 64.4555 181.731 64.2615 181.799 64.0085C181.866 63.7554 181.824 63.4645 181.672 63.1355L180.47 60.5462L178.648 61.3938L179.854 63.9958V63.9916Z" fill="#151516"/>
<path d="M39.2198 158.36L37.0902 156.183L38.1909 155.104L43.6563 160.679L42.5556 161.759L40.426 159.587L35.3738 164.538L34.1719 163.311L39.2241 158.36H39.2198Z" fill="#151516"/>
<path d="M44.7907 161.729L46.1234 162.813L43.9431 165.503L47.612 168.477L49.7923 165.786L51.1249 166.866L45.7016 173.558L44.369 172.479L46.6379 169.683L42.9689 166.709L40.7001 169.505L39.3674 168.422L44.7907 161.729Z" fill="#151516"/>
<path d="M52.854 168.046L58.3237 171.547L57.5013 172.833L53.4781 170.26L52.4238 171.909L56.1392 174.284L55.3295 175.549L51.6141 173.174L50.4924 174.929L54.5788 177.543L53.748 178.842L48.2151 175.304L52.8582 168.046H52.854Z" fill="#151516"/>
<path d="M62.3004 173.955L63.9578 174.638L63.2914 181.428L67.6815 176.173L69.4696 176.911L68.875 183.73L73.1723 178.438L74.7369 179.083L68.9678 186.024L67.0658 185.24L67.6267 178.707L63.4095 183.734L61.5076 182.95L62.3004 173.959V173.955Z" fill="#151516"/>
<path d="M75.7785 187.707C75.1544 187.176 74.7242 186.535 74.488 185.784C74.2519 185.033 74.2392 184.224 74.4543 183.355C74.6694 182.49 75.0531 181.778 75.6182 181.221C76.1791 180.664 76.8581 180.297 77.6594 180.116C78.4606 179.935 79.3125 179.956 80.2192 180.179C81.1259 180.403 81.8934 180.778 82.5176 181.309C83.1417 181.841 83.5719 182.482 83.8122 183.237C84.0526 183.992 84.0653 184.797 83.8544 185.666C83.6393 186.535 83.2556 187.243 82.6905 187.8C82.1296 188.356 81.4464 188.723 80.6494 188.905C79.8481 189.086 78.9962 189.065 78.0895 188.841C77.1744 188.618 76.4026 188.238 75.7785 187.707ZM76.2424 185.375C76.39 185.856 76.6557 186.265 77.0394 186.598C77.4274 186.931 77.8997 187.167 78.4648 187.306C79.0299 187.445 79.5613 187.458 80.0547 187.34C80.5524 187.226 80.9741 186.986 81.3241 186.623C81.6741 186.26 81.9187 185.797 82.0579 185.223C82.1971 184.649 82.1971 184.122 82.0579 183.642C81.9187 183.161 81.653 182.752 81.2651 182.419C80.8771 182.085 80.4048 181.849 79.8397 181.71C79.2746 181.571 78.7432 181.558 78.2498 181.676C77.7521 181.79 77.3262 182.031 76.9762 182.389C76.6219 182.747 76.3773 183.216 76.234 183.789C76.0906 184.363 76.0948 184.89 76.2424 185.371V185.375Z" fill="#151516"/>
<path d="M86.5746 181.714L90.9394 182.229C91.6015 182.305 92.1666 182.499 92.6347 182.802C93.1028 183.106 93.4444 183.494 93.6637 183.958C93.8788 184.426 93.9547 184.932 93.8914 185.484C93.8029 186.243 93.4824 186.851 92.9341 187.298C92.3859 187.745 91.6732 187.964 90.8044 187.956L92.0738 188.538L93.63 191.216L91.5593 190.971L89.8387 187.867L87.6205 187.606L87.2831 190.465L85.5793 190.262L86.583 181.706L86.5746 181.714ZM90.3869 186.4C90.8635 186.454 91.2641 186.378 91.5846 186.172C91.9051 185.965 92.0907 185.657 92.1371 185.257C92.1835 184.856 92.0738 184.514 91.8124 184.24C91.5467 183.962 91.1756 183.798 90.699 183.743L88.1012 183.439L87.7892 186.1L90.3869 186.404V186.4Z" fill="#151516"/>
<path d="M96.0086 182.663L97.7249 182.693L97.6111 189.765L102.246 189.841L102.22 191.38L95.8694 191.279L96.0086 182.663Z" fill="#151516"/>
<path d="M103.916 182.722L107.488 182.381C108.462 182.288 109.326 182.381 110.09 182.667C110.853 182.95 111.46 183.397 111.912 184.004C112.363 184.612 112.628 185.354 112.713 186.227C112.797 187.1 112.671 187.871 112.342 188.55C112.013 189.229 111.502 189.778 110.811 190.195C110.119 190.613 109.284 190.866 108.302 190.958L104.73 191.3L103.916 182.722ZM108.171 189.436C109.111 189.347 109.82 189.035 110.296 188.504C110.773 187.973 110.971 187.268 110.887 186.4C110.802 185.518 110.473 184.86 109.904 184.426C109.335 183.987 108.58 183.814 107.64 183.907L105.767 184.084L106.294 189.617L108.167 189.44L108.171 189.436Z" fill="#151516"/>
<path d="M114.619 183.254C114.438 183.195 114.282 183.093 114.159 182.95C114.037 182.811 113.957 182.642 113.923 182.452C113.872 182.17 113.923 181.913 114.088 181.681C114.252 181.449 114.471 181.305 114.762 181.25C115.036 181.2 115.285 181.25 115.513 181.402C115.741 181.554 115.884 181.778 115.935 182.077C115.977 182.309 115.956 182.6 115.871 182.946L115.5 184.654L114.345 184.86L114.619 183.245V183.254Z" fill="#151516"/>
<path d="M120.308 188.652C119.583 188.432 119.039 188.023 118.688 187.429L120.156 186.488C120.418 186.855 120.759 187.091 121.181 187.197C121.603 187.302 122.117 187.277 122.72 187.121C123.348 186.956 123.791 186.745 124.044 186.484C124.297 186.222 124.382 185.927 124.302 185.603C124.23 185.333 124.086 185.147 123.863 185.042C123.639 184.94 123.344 184.907 122.973 184.953L120.983 185.181C120.198 185.269 119.54 185.164 119.009 184.86C118.478 184.557 118.128 184.076 117.959 183.418C117.832 182.92 117.845 182.444 118.001 181.993C118.157 181.537 118.461 181.132 118.916 180.778C119.372 180.424 119.958 180.15 120.683 179.964C121.636 179.72 122.446 179.694 123.104 179.892C123.766 180.091 124.28 180.445 124.656 180.947L123.264 181.921C123.041 181.621 122.741 181.428 122.37 181.335C121.999 181.242 121.565 181.263 121.067 181.39C120.489 181.537 120.076 181.744 119.836 182.001C119.595 182.258 119.511 182.545 119.591 182.853C119.722 183.359 120.19 183.574 120.995 183.494L123.007 183.262C123.774 183.178 124.415 183.292 124.93 183.608C125.44 183.924 125.782 184.409 125.95 185.059C126.157 185.86 126.022 186.564 125.546 187.18C125.069 187.795 124.243 188.251 123.07 188.555C121.961 188.841 121.042 188.875 120.316 188.652H120.308Z" fill="#151516"/>
<path d="M134.107 184.354C133.314 184.299 132.601 184.042 131.964 183.587C131.327 183.131 130.83 182.49 130.476 181.672C130.117 180.854 129.995 180.057 130.096 179.273C130.201 178.492 130.518 177.788 131.041 177.16C131.564 176.531 132.268 176.025 133.149 175.642C134.128 175.216 135.051 175.043 135.911 175.131C136.772 175.22 137.485 175.561 138.05 176.165L136.776 177.383C136.38 177.025 135.933 176.818 135.435 176.772C134.937 176.725 134.398 176.827 133.82 177.08C133.28 177.316 132.841 177.636 132.512 178.045C132.179 178.45 131.981 178.906 131.914 179.408C131.846 179.909 131.93 180.424 132.158 180.947C132.394 181.487 132.719 181.904 133.132 182.204C133.546 182.503 134.014 182.663 134.528 182.689C135.043 182.714 135.578 182.608 136.127 182.372C136.759 182.098 137.24 181.719 137.573 181.246C137.906 180.774 137.986 180.247 137.818 179.677L135.072 180.875L134.465 179.488L138.75 177.619L140.639 181.95L139.319 182.524L138.598 180.867L138.201 182.802C137.851 183.203 137.291 183.57 136.519 183.907C135.701 184.266 134.895 184.418 134.107 184.363V184.354Z" fill="#151516"/>
<path d="M141.229 171.736L143.27 170.522L150.684 176.135L149.056 177.105L147.585 175.937L143.861 178.155L144.173 180.011L142.608 180.943L141.229 171.736ZM146.315 174.941L142.895 172.259L143.599 176.557L146.311 174.941H146.315Z" fill="#151516"/>
<path d="M147.369 168.017L149.474 166.343L155.652 170.033L153.472 163.167L155.479 161.573L160.839 168.316L159.502 169.379L155.361 164.167L157.533 170.944L155.981 172.179L149.799 168.443L154.012 173.744L152.725 174.764L147.365 168.021L147.369 168.017Z" fill="#151516"/>
<path d="M156.909 160.11L161.451 155.471L162.543 156.542L159.203 159.954L160.603 161.324L163.686 158.174L164.761 159.224L161.678 162.374L163.167 163.833L166.562 160.367L167.663 161.446L163.066 166.14L156.909 160.114V160.11Z" fill="#151516"/>
<mask id="mask0_1092_23035" style="mask-type:luminance" maskUnits="userSpaceOnUse" x="26" y="26" width="148" height="148">
<path d="M100.002 173.955C140.666 173.955 173.63 140.99 173.63 100.327C173.63 59.6633 140.666 26.699 100.002 26.699C59.3386 26.699 26.3743 59.6633 26.3743 100.327C26.3743 140.99 59.3386 173.955 100.002 173.955Z" fill="white"/>
</mask>
<g mask="url(#mask0_1092_23035)">
<mask id="mask1_1092_23035" style="mask-type:luminance" maskUnits="userSpaceOnUse" x="26" y="26" width="148" height="148">
<path d="M100.002 173.955C140.666 173.955 173.63 140.99 173.63 100.327C173.63 59.6633 140.666 26.699 100.002 26.699C59.3386 26.699 26.3743 59.6633 26.3743 100.327C26.3743 140.99 59.3386 173.955 100.002 173.955Z" fill="white"/>
</mask>
<g mask="url(#mask1_1092_23035)">
<mask id="mask2_1092_23035" style="mask-type:luminance" maskUnits="userSpaceOnUse" x="26" y="26" width="148" height="148">
<path d="M100.002 173.68C140.521 173.68 173.368 140.833 173.368 100.314C173.368 59.795 140.521 26.9478 100.002 26.9478C59.483 26.9478 26.6357 59.795 26.6357 100.314C26.6357 140.833 59.483 173.68 100.002 173.68Z" fill="white"/>
</mask>
<g mask="url(#mask2_1092_23035)">
<path d="M177.35 100.719H22.1951" stroke="#151516" stroke-width="1.94" stroke-miterlimit="10"/>
</g>
<mask id="mask3_1092_23035" style="mask-type:luminance" maskUnits="userSpaceOnUse" x="26" y="26" width="148" height="148">
<path d="M100.002 173.68C140.521 173.68 173.368 140.833 173.368 100.314C173.368 59.795 140.521 26.9478 100.002 26.9478C59.483 26.9478 26.6357 59.795 26.6357 100.314C26.6357 140.833 59.483 173.68 100.002 173.68Z" fill="white"/>
</mask>
<g mask="url(#mask3_1092_23035)">
<path d="M99.7744 178.319C142.62 178.319 177.354 143.586 177.354 100.74C177.354 57.8942 142.62 23.1608 99.7744 23.1608C56.9285 23.1608 22.1951 57.8942 22.1951 100.74C22.1951 143.586 56.9285 178.319 99.7744 178.319Z" stroke="#151516" stroke-width="1.94" stroke-miterlimit="10"/>
</g>
<mask id="mask4_1092_23035" style="mask-type:luminance" maskUnits="userSpaceOnUse" x="26" y="26" width="148" height="148">
<path d="M100.002 173.68C140.521 173.68 173.368 140.833 173.368 100.314C173.368 59.795 140.521 26.9478 100.002 26.9478C59.483 26.9478 26.6357 59.795 26.6357 100.314C26.6357 140.833 59.483 173.68 100.002 173.68Z" fill="white"/>
</mask>
<g mask="url(#mask4_1092_23035)">
<path d="M175.41 79.3927C175.41 79.3927 166.305 68.0273 99.7744 68.0273C33.2441 68.0273 24.1392 79.3927 24.1392 79.3927" stroke="#151516" stroke-width="1.94" stroke-miterlimit="10"/>
<path d="M177.35 90.6019C177.35 90.6019 168.013 83.4749 99.7703 83.4749C31.5278 83.4749 22.1909 90.6019 22.1909 90.6019" stroke="#151516" stroke-width="1.94" stroke-miterlimit="10"/>
<path d="M171.947 68.3647C171.947 68.3647 165.073 61.5371 142.111 57.0078C131.673 54.9499 117.862 53.4528 99.7745 53.4528C81.687 53.4528 68.0655 54.9456 57.6406 56.9952C34.6274 61.5244 27.8293 68.7864 27.8293 68.7864" stroke="#151516" stroke-width="1.94" stroke-miterlimit="10"/>
<path d="M169.666 62.06C169.666 62.06 149.457 41.5012 99.7704 41.5012C56.502 41.5012 32.0803 60.2213 32.0803 60.2213" stroke="#151516" stroke-width="1.94" stroke-miterlimit="10"/>
<path d="M161.451 52.9847C155.007 48.1181 141.824 38.874 122.349 34.4249C116.795 33.1555 108.285 32.6705 99.7704 32.6705C91.2559 32.6705 84.1457 32.8392 77.1916 34.4249C56.1815 39.2114 46.4525 47.5277 38.0139 52.9847" stroke="#151516" stroke-width="1.94" stroke-miterlimit="10"/>
<path d="M154.358 45.613C154.358 45.613 136.548 26.7706 99.7704 26.7706C62.9923 26.7706 45.1831 45.613 45.1831 45.613" stroke="#151516" stroke-width="1.94" stroke-miterlimit="10"/>
</g>
<mask id="mask5_1092_23035" style="mask-type:luminance" maskUnits="userSpaceOnUse" x="26" y="26" width="148" height="148">
<path d="M100.002 173.68C140.521 173.68 173.368 140.833 173.368 100.314C173.368 59.795 140.521 26.9478 100.002 26.9478C59.483 26.9478 26.6357 59.795 26.6357 100.314C26.6357 140.833 59.483 173.68 100.002 173.68Z" fill="white"/>
</mask>
<g mask="url(#mask5_1092_23035)">
<path d="M80.4302 176.898C80.4302 176.898 94.971 174.781 128.236 117.162C161.501 59.5424 156.065 45.8914 156.065 45.8914" stroke="#151516" stroke-width="1.94" stroke-miterlimit="10"/>
<path d="M71.2156 173.824C71.2156 173.824 79.865 168.034 113.986 108.938C148.108 49.8429 148.795 39.4559 148.795 39.4559" stroke="#151516" stroke-width="1.94" stroke-miterlimit="10"/>
<path d="M91.4622 179.007C91.4622 179.007 111.772 174.499 140.715 124.369C145.796 115.568 149.824 107.707 152.923 100.694C167.127 68.5714 161.978 50.8297 161.978 50.8297" stroke="#151516" stroke-width="1.94" stroke-miterlimit="10"/>
<path d="M101.01 179.606C101.01 179.606 123.386 177.252 150.617 130.083C160.628 112.738 165.87 98.7411 167.966 87.9789C171.69 68.8624 163.968 56.3542 163.559 55.5867" stroke="#151516" stroke-width="1.94" stroke-miterlimit="10"/>
<path d="M114.838 177.813C114.838 177.813 137.527 168.679 159.03 133.82C163.315 126.874 166.406 120.291 168.797 114.286C179.353 87.7807 168.797 67.8545 168.797 67.8545" stroke="#151516" stroke-width="1.94" stroke-miterlimit="10"/>
<path d="M131.256 171.817C131.256 171.817 149.651 165.693 165.314 138.568C180.761 111.81 177.08 92.4491 177.08 92.4491" stroke="#151516" stroke-width="1.94" stroke-miterlimit="10"/>
<path d="M138.556 33.5392L60.9763 167.911" stroke="#151516" stroke-width="1.94" stroke-miterlimit="10"/>
<path d="M119.114 24.5608C119.114 24.5608 104.574 26.6778 71.3084 84.2972C38.0433 141.917 43.4792 155.568 43.4792 155.568" stroke="#151516" stroke-width="1.94" stroke-miterlimit="10"/>
<path d="M128.329 27.6394C128.329 27.6394 119.679 33.4296 85.5582 92.525C51.4369 151.625 50.7495 162.007 50.7495 162.007" stroke="#151516" stroke-width="1.94" stroke-miterlimit="10"/>
<path d="M108.082 22.4523C108.082 22.4523 87.7721 26.9604 58.8296 77.0901C30.0346 126.967 36.1369 147.066 36.1369 147.066" stroke="#151516" stroke-width="1.94" stroke-miterlimit="10"/>
<path d="M98.5345 21.8534C98.5345 21.8534 76.1581 24.2066 48.9277 71.3758C21.8365 118.3 30.8444 139.095 30.8444 139.095" stroke="#151516" stroke-width="1.94" stroke-miterlimit="10"/>
<path d="M84.7064 23.6458C70.5577 31.6584 66.8129 34.3701 54.0264 48.9489C42.4586 62.1402 37.6384 74.1971 31.9536 87.4307C22.0517 110.478 25.4802 126.225 25.4802 126.225" stroke="#151516" stroke-width="1.94" stroke-miterlimit="10"/>
<path d="M68.2888 29.6426C68.2888 29.6426 49.8935 35.7659 34.2309 62.8909C18.7833 89.6489 22.4649 109.01 22.4649 109.01" stroke="#151516" stroke-width="1.94" stroke-miterlimit="10"/>
</g>
<mask id="mask6_1092_23035" style="mask-type:luminance" maskUnits="userSpaceOnUse" x="26" y="26" width="148" height="148">
<path d="M100.002 173.68C140.521 173.68 173.368 140.833 173.368 100.314C173.368 59.795 140.521 26.9478 100.002 26.9478C59.483 26.9478 26.6357 59.795 26.6357 100.314C26.6357 140.833 59.483 173.68 100.002 173.68Z" fill="white"/>
</mask>
<g mask="url(#mask6_1092_23035)">
<path d="M119.114 176.898C119.114 176.898 104.574 174.781 71.3084 117.162C38.0433 59.5423 43.4792 45.8955 43.4792 45.8955" stroke="#151516" stroke-width="1.94" stroke-miterlimit="10"/>
<path d="M128.329 173.824C128.329 173.824 119.679 168.034 85.5582 108.938C51.4369 49.8428 50.7495 39.4517 50.7495 39.4517" stroke="#151516" stroke-width="1.94" stroke-miterlimit="10"/>
<path d="M108.082 179.007C108.082 179.007 87.7723 174.499 58.8298 124.369C49.8936 108.888 43.7028 96.468 40.8772 86.2456C35.513 66.8254 36.9426 52.137 36.9426 52.137" stroke="#151516" stroke-width="1.94" stroke-miterlimit="10"/>
<path d="M98.5345 179.606C98.5345 179.606 76.1581 177.252 48.9278 130.083C42.4249 118.819 38.0095 109.052 35.0321 100.727C28.0485 81.1892 33.2862 60.5883 33.2862 60.5883" stroke="#151516" stroke-width="1.94" stroke-miterlimit="10"/>
<path d="M84.7064 177.813C84.7064 177.813 61.2588 169.223 41.0163 134.161C21.048 99.5804 25.4802 75.2303 25.4802 75.2303" stroke="#151516" stroke-width="1.94" stroke-miterlimit="10"/>
<path d="M68.2888 171.817C68.2888 171.817 49.8935 165.693 34.2309 138.568C18.7833 111.81 22.4649 92.4491 22.4649 92.4491" stroke="#151516" stroke-width="1.94" stroke-miterlimit="10"/>
<path d="M60.9888 33.5392L138.568 167.911" stroke="#151516" stroke-width="1.94" stroke-miterlimit="10"/>
<path d="M80.4302 24.5608C80.4302 24.5608 94.971 26.6778 128.236 84.2972C161.501 141.917 156.065 155.568 156.065 155.568" stroke="#151516" stroke-width="1.94" stroke-miterlimit="10"/>
<path d="M71.2156 27.6394C71.2156 27.6394 79.865 33.4296 113.986 92.525C148.108 151.625 148.795 162.007 148.795 162.007" stroke="#151516" stroke-width="1.94" stroke-miterlimit="10"/>
<path d="M91.4622 22.4523C91.4622 22.4523 111.772 26.9604 140.715 77.0901C169.51 126.967 163.407 147.066 163.407 147.066" stroke="#151516" stroke-width="1.94" stroke-miterlimit="10"/>
<path d="M101.01 21.8534C101.01 21.8534 123.386 24.2066 150.617 71.3758C177.708 118.3 168.7 139.095 168.7 139.095" stroke="#151516" stroke-width="1.94" stroke-miterlimit="10"/>
<path d="M114.838 23.6458C118.419 31.0722 129.552 28.9468 145.775 48.6199C150.001 53.7438 154.585 59.7069 158.528 67.087C180.702 108.58 177.109 129.472 177.109 129.472" stroke="#151516" stroke-width="1.94" stroke-miterlimit="10"/>
<path d="M131.256 29.6426C131.256 29.6426 149.651 35.7659 165.314 62.8909C180.761 89.6489 177.08 109.01 177.08 109.01" stroke="#151516" stroke-width="1.94" stroke-miterlimit="10"/>
</g>
<mask id="mask7_1092_23035" style="mask-type:luminance" maskUnits="userSpaceOnUse" x="26" y="26" width="148" height="148">
<path d="M100.002 173.68C140.521 173.68 173.368 140.833 173.368 100.314C173.368 59.795 140.521 26.9478 100.002 26.9478C59.483 26.9478 26.6357 59.795 26.6357 100.314C26.6357 140.833 59.483 173.68 100.002 173.68Z" fill="white"/>
</mask>
<g mask="url(#mask7_1092_23035)">
<path d="M175.41 122.066C175.41 122.066 166.305 133.432 99.7744 133.432C33.2441 133.432 24.1392 122.066 24.1392 122.066" stroke="#151516" stroke-width="1.94" stroke-miterlimit="10"/>
<path d="M177.35 112.544C177.35 112.544 168.013 117.141 99.7703 117.141C31.5278 117.141 22.1909 112.544 22.1909 112.544" stroke="#151516" stroke-width="1.94" stroke-miterlimit="10"/>
<path d="M171.716 132.673C171.716 132.673 157.655 148.011 99.7704 148.011C41.8853 148.011 27.8252 132.673 27.8252 132.673" stroke="#151516" stroke-width="1.94" stroke-miterlimit="10"/>
<path d="M167.46 141.238C167.46 141.238 142.904 159.958 99.7704 159.958C56.637 159.958 32.0803 142.292 32.0803 142.292" stroke="#151516" stroke-width="1.94" stroke-miterlimit="10"/>
<path d="M161.451 148.474C155.007 153.341 141.824 162.585 122.349 167.034C116.795 168.304 108.285 168.789 99.7704 168.789C91.2559 168.789 84.1457 168.62 77.1916 167.034C56.1815 162.243 46.4525 153.927 38.0139 148.474" stroke="#151516" stroke-width="1.94" stroke-miterlimit="10"/>
<path d="M154.358 155.846C154.358 155.846 136.548 174.688 99.7704 174.688C62.9923 174.688 45.1831 155.846 45.1831 155.846" stroke="#151516" stroke-width="1.94" stroke-miterlimit="10"/>
</g>
</g>
<mask id="mask8_1092_23035" style="mask-type:luminance" maskUnits="userSpaceOnUse" x="26" y="26" width="148" height="148">
<path d="M100.002 173.955C140.666 173.955 173.63 140.99 173.63 100.327C173.63 59.6633 140.666 26.699 100.002 26.699C59.3386 26.699 26.3743 59.6633 26.3743 100.327C26.3743 140.99 59.3386 173.955 100.002 173.955Z" fill="white"/>
</mask>
<g mask="url(#mask8_1092_23035)">
<path d="M100.002 173.68C140.521 173.68 173.368 140.833 173.368 100.314C173.368 59.795 140.521 26.9478 100.002 26.9478C59.483 26.9478 26.6357 59.795 26.6357 100.314C26.6357 140.833 59.483 173.68 100.002 173.68Z" stroke="#151516" stroke-width="1.19" stroke-miterlimit="10"/>
</g>
<mask id="mask9_1092_23035" style="mask-type:luminance" maskUnits="userSpaceOnUse" x="26" y="26" width="148" height="148">
<path d="M100.002 173.955C140.666 173.955 173.63 140.99 173.63 100.327C173.63 59.6633 140.666 26.699 100.002 26.699C59.3386 26.699 26.3743 59.6633 26.3743 100.327C26.3743 140.99 59.3386 173.955 100.002 173.955Z" fill="white"/>
</mask>
<g mask="url(#mask9_1092_23035)">
<path d="M44.9468 60.0316C44.9468 60.0316 67.1039 53.4528 100.306 53.4528C136.329 53.4528 154.585 60.099 154.585 60.099C154.585 60.099 147.007 84.1496 131.403 111.62C112.472 144.949 99.6943 159.962 99.6943 159.962C99.6943 159.962 79.1819 132.554 63.7765 103.671C49.2567 76.4491 44.9468 60.0316 44.9468 60.0316Z" fill="#151516"/>
</g>
<mask id="mask10_1092_23035" style="mask-type:luminance" maskUnits="userSpaceOnUse" x="26" y="26" width="148" height="148">
<path d="M100.002 173.955C140.666 173.955 173.63 140.99 173.63 100.327C173.63 59.6633 140.666 26.699 100.002 26.699C59.3386 26.699 26.3743 59.6633 26.3743 100.327C26.3743 140.99 59.3386 173.955 100.002 173.955Z" fill="white"/>
</mask>
<g mask="url(#mask10_1092_23035)">
<path d="M73.4506 59.6014C65.6783 60.4111 58.1549 61.4401 50.2729 62.8951C52.6008 68.875 55.2998 75.2978 58.779 81.8977C63.6752 74.6652 68.6641 67.1839 73.4506 59.6057V59.6014Z" fill="#FCFCF7"/>
<path d="M73.9103 58.8887C65.9947 59.6689 60.0485 60.4617 50.2688 62.8908C52.4786 69.3768 54.8444 75.5466 58.1549 82.8085C63.2198 75.0447 69.1238 66.467 73.9103 58.8887Z" fill="#FCFCF7"/>
<path d="M111.911 57.8977C102.507 57.5139 94.7644 57.67 84.4702 58.0959C80.3374 58.2688 76.3859 61.1955 73.826 65.2229C69.592 71.9198 64.1687 80.2024 59.9009 86.6209C62.0643 91.1586 64.3922 96.1476 66.9942 100.85C68.5798 98.2857 71.7343 93.0564 73.3537 90.4459C80.3584 90.2393 87.359 90.1128 94.3553 90.0664C97.1344 85.3178 99.8798 80.5693 102.507 75.846C95.7132 75.8123 88.9235 75.9346 82.1212 76.2129C82.9267 74.8845 83.728 73.5477 84.525 72.215C91.2472 71.9409 97.9652 71.8397 104.683 71.9156C107.247 67.2134 109.676 62.4944 111.911 57.8977Z" fill="#FCFCF7"/>
<path d="M83.4116 129.193C88.6535 137.906 94.6925 146.092 99.8206 153.084C112.835 135.785 123.77 117.162 133.676 98.7074C128.152 98.6189 122.627 98.5514 117.103 98.5092C112.131 107.07 105.362 116.854 100.377 125.529C99.6224 124.213 98.8591 122.897 98.0958 121.581C107.336 105.556 118.064 88.2868 125.735 73.1724C127.199 73.2652 128.662 73.3622 130.125 73.4718C126.684 80.3121 123.293 87.397 119.14 94.6252C124.647 94.7011 130.155 94.815 135.662 94.9626C142.022 83.1249 145.417 73.126 149.254 63.3084C140.715 60.5377 131.909 59.3147 122.737 58.505C118.667 58.1339 115.104 60.2805 113.193 64.0464C105.088 80.1392 92.7653 99.9599 83.2893 116.314C81.0542 120.156 81.0542 125.267 83.4158 129.189L83.4116 129.193Z" fill="#FCFCF7"/>
<path d="M119.131 94.6293C124.639 94.7052 130.146 94.8191 135.654 94.9667C142.549 81.6404 145.758 73.438 149.246 63.3125" fill="#FCFCF7"/>
</g>
</g>
<path d="M100.002 173.419C140.549 173.419 173.419 140.549 173.419 100.002C173.419 59.455 140.549 26.5851 100.002 26.5851C59.4551 26.5851 26.5852 59.455 26.5852 100.002C26.5852 140.549 59.4551 173.419 100.002 173.419Z" stroke="#151516" stroke-width="1.98" stroke-miterlimit="10"/>
</g>
<defs>
<clipPath id="clip0_1092_23035">
<rect width="200" height="200" fill="white"/>
</clipPath>
</defs>
</svg>
