<svg width="244" height="90" viewBox="0 0 244 90" fill="none" xmlns="http://www.w3.org/2000/svg">
<g clip-path="url(#clip0)">
<path fill-rule="evenodd" clip-rule="evenodd" d="M186.488 0.602417H0.72937V89.3126H186.603V0.602417H186.488Z" fill="#FFFFFE"/>
<path fill-rule="evenodd" clip-rule="evenodd" d="M243.846 1H0V89H244V1H243.846Z" fill="#FFFFFE"/>
<path fill-rule="evenodd" clip-rule="evenodd" d="M2 88H242V2H2V88Z" fill="#1A1919"/>
<path fill-rule="evenodd" clip-rule="evenodd" d="M4.47717 19.0338H55.7065V4.63763H4.47717V19.0338Z" fill="#FFFFFE"/>
<path fill-rule="evenodd" clip-rule="evenodd" d="M4.45374 75.0925H55.7124V22.1731H4.45374V75.0925Z" fill="#FFFFFE"/>
<path fill-rule="evenodd" clip-rule="evenodd" d="M4.46545 85.2363V78.2083H14.7559V79.8533H8.60042V80.8568H13.8092V82.4959H8.60042V83.5972H14.9946V85.2363H4.46545Z" fill="#FFFFFE"/>
<path fill-rule="evenodd" clip-rule="evenodd" d="M23.7379 80.2563C23.6733 80.0196 23.4425 79.8632 23.1413 79.779C22.8479 79.691 22.4841 79.6499 22.0733 79.6499C21.1638 79.6499 20.7569 79.7967 20.7569 80.0607C20.7569 81.0994 28.0137 80.446 28.0137 83.0025C28.0137 84.6299 25.5745 85.4241 22.1085 85.4241C18.7775 85.4241 16.6063 84.3404 16.5183 83.0729H20.4772C20.5672 83.3253 20.8137 83.5072 21.1638 83.6245C21.4963 83.7419 21.9305 83.8025 22.3413 83.8025C23.3741 83.8025 24.0606 83.6187 24.0606 83.2862C24.0606 82.2221 16.798 82.9536 16.798 80.2739C16.798 78.7815 19.1139 78.0343 22.2689 78.0343C25.7701 78.0343 27.3682 79.026 27.6714 80.2563H23.7379Z" fill="#FFFFFE"/>
<path fill-rule="evenodd" clip-rule="evenodd" d="M34.2043 82.7874V85.2363H30.0713V78.2083H36.0292C40.2287 78.2083 41.6175 78.8519 41.6175 80.2172C41.6175 81.0289 40.9701 81.7037 39.4972 81.9404C40.8292 82.2084 41.6351 82.3746 41.6351 83.7908C41.6351 84.7062 41.5823 85.0231 42.0732 85.0231V85.2363H37.8816C37.7779 85.0759 37.6742 84.6299 37.6742 84.0079C37.6742 83.0847 37.3926 82.7874 35.4659 82.7874H34.2043ZM34.2043 81.2558H35.8297C37.1089 81.2558 37.7975 81.07 37.7975 80.5869C37.7975 80.092 37.0972 79.8533 36.1309 79.8533H34.2043V81.2558Z" fill="#FFFFFE"/>
<path fill-rule="evenodd" clip-rule="evenodd" d="M44.1583 85.2363V78.2083H50.1886C53.0287 78.2083 55.2899 78.5898 55.2899 79.9805C55.2899 80.7062 54.4468 81.2343 53.6429 81.5062C55.0082 81.7037 55.7397 82.3629 55.7397 83.1179C55.7397 84.6808 53.5901 85.2363 50.306 85.2363H44.1583ZM48.2894 82.3023V83.5972H50.0948C51.1197 83.5972 51.8864 83.4759 51.8864 82.9536C51.8864 82.3394 50.9261 82.3023 49.6058 82.3023H48.2894ZM48.2894 79.8533V81.0289H50.0126C50.8361 81.0289 51.4346 80.8177 51.4346 80.4147C51.4346 79.8631 50.619 79.8533 49.7505 79.8533H48.2894Z" fill="#FFFFFE"/>
<path fill-rule="evenodd" clip-rule="evenodd" d="M8.28552 34.4039L39.3076 25.1384L42.4176 34.9614L26.8772 39.5991L28.1506 43.6225L42.5076 39.3369L45.6117 49.1658L31.2626 53.4455L32.6024 57.6803L48.6513 52.8822L51.7614 62.7052L20.2366 72.1233L8.28552 34.4039Z" fill="#1A1919"/>
<path fill-rule="evenodd" clip-rule="evenodd" d="M5.90125 15.9139V7.7594H10.3003V9.01515H7.58731V11.024H10.0871V12.2777H7.58731V14.6582H10.3863V15.9139H5.90125Z" fill="#1A1919"/>
<path fill-rule="evenodd" clip-rule="evenodd" d="M10.8322 7.7594H12.5867L13.8346 13.688H13.8561L15.2625 7.7594H16.927L14.793 15.9139H12.8194L10.8322 7.7594Z" fill="#1A1919"/>
<path fill-rule="evenodd" clip-rule="evenodd" d="M17.6879 15.9139V7.7594H22.083V9.01515H19.372V11.024H21.8717V12.2777H19.372V14.6582H22.173V15.9139H17.6879Z" fill="#1A1919"/>
<path fill-rule="evenodd" clip-rule="evenodd" d="M24.9173 11.2821H25.6644C25.8287 11.2821 25.9657 11.245 26.0791 11.1706C26.1926 11.0963 26.2786 10.9985 26.3451 10.8831C26.4116 10.7658 26.4586 10.6367 26.486 10.4939C26.5114 10.3511 26.5231 10.2142 26.5231 10.087C26.5231 9.69583 26.4488 9.42004 26.2962 9.25769C26.1437 9.0973 25.9324 9.01515 25.6644 9.01515H24.9173V11.2821ZM24.9173 15.9139H23.2351V7.7594H26.3451C26.926 7.7594 27.3857 7.94131 27.726 8.30121C28.0625 8.66502 28.2326 9.19705 28.2326 9.89339C28.2326 10.4137 28.1192 10.8538 27.8903 11.2156C27.6654 11.5755 27.2801 11.8044 26.7363 11.8924V11.9159C26.8263 11.9315 26.9515 11.953 27.1158 11.9824C27.2801 12.0137 27.4424 12.0821 27.6009 12.1878C27.7593 12.2934 27.9001 12.4499 28.0194 12.6552C28.1388 12.8645 28.1994 13.1521 28.1994 13.5178C28.1994 13.6469 28.2013 13.8288 28.2053 14.0616C28.2072 14.2944 28.215 14.533 28.2326 14.7834C28.2483 15.0318 28.2679 15.2606 28.2933 15.4738C28.3187 15.6831 28.352 15.8279 28.3891 15.9139H26.7363C26.6229 15.6636 26.5681 15.4034 26.5642 15.1335C26.5622 14.8636 26.5583 14.5936 26.5583 14.3315C26.5583 14.0909 26.5564 13.8601 26.5525 13.643C26.5505 13.4259 26.5114 13.2362 26.441 13.0719C26.3686 12.9115 26.2512 12.7824 26.085 12.6846C25.9168 12.5868 25.6742 12.5379 25.3534 12.5379H24.9173V15.9139Z" fill="#1A1919"/>
<path fill-rule="evenodd" clip-rule="evenodd" d="M30.7873 13.0914L28.6768 7.7594H30.5193L31.7242 11.2039L33.0093 7.7594H34.7267L32.4753 13.0914V15.9139H30.7873V13.0914Z" fill="#1A1919"/>
<path fill-rule="evenodd" clip-rule="evenodd" d="M38.2101 14.8264C38.4468 14.8264 38.6365 14.7697 38.7793 14.6543C38.9182 14.5369 39.0258 14.357 39.1021 14.1164C39.1784 13.8758 39.2233 13.5667 39.2488 13.1873C39.2703 12.8039 39.282 12.3579 39.282 11.8377C39.282 11.3174 39.2703 10.8675 39.2488 10.488C39.2233 10.1066 39.1784 9.79755 39.1021 9.55697C39.0258 9.31442 38.9182 9.13643 38.7793 9.02102C38.6365 8.90366 38.4468 8.84499 38.2101 8.84499C37.9695 8.84499 37.7818 8.90366 37.639 9.02102C37.4962 9.13643 37.3906 9.31442 37.3182 9.55697C37.2419 9.79755 37.195 10.1066 37.1695 10.488C37.148 10.8675 37.1363 11.3174 37.1363 11.8377C37.1363 12.3579 37.148 12.8039 37.1695 13.1873C37.195 13.5667 37.2419 13.8758 37.3182 14.1164C37.3906 14.357 37.4962 14.5369 37.639 14.6543C37.7818 14.7697 37.9695 14.8264 38.2101 14.8264ZM38.2101 16.0469C37.5177 16.0469 36.9837 15.9296 36.6023 15.6929C36.2228 15.4562 35.9471 15.1394 35.773 14.7423C35.6048 14.3491 35.505 13.8993 35.4757 13.3946C35.4463 12.89 35.4287 12.3716 35.4287 11.8377C35.4287 11.2939 35.4463 10.7716 35.4757 10.265C35.505 9.7643 35.6048 9.31442 35.773 8.92518C35.9471 8.53203 36.2228 8.21907 36.6023 7.98044C36.9837 7.74181 37.5177 7.6264 38.2101 7.6264C38.9006 7.6264 39.4385 7.74181 39.818 7.98044C40.1955 8.21907 40.4713 8.53203 40.6434 8.92518C40.8116 9.31442 40.9133 9.7643 40.9427 10.265C40.974 10.7716 40.9877 11.2939 40.9877 11.8377C40.9877 12.3716 40.974 12.89 40.9427 13.3946C40.9133 13.8993 40.8116 14.3491 40.6434 14.7423C40.4713 15.1394 40.1955 15.4562 39.818 15.6929C39.4385 15.9296 38.9006 16.0469 38.2101 16.0469Z" fill="#1A1919"/>
<path fill-rule="evenodd" clip-rule="evenodd" d="M42.3374 15.9139V7.7594H44.6161L46.756 13.4044H46.7795V7.7594H48.356V15.9139H46.134L43.9335 9.95011H43.91V15.9139H42.3374Z" fill="#1A1919"/>
<path fill-rule="evenodd" clip-rule="evenodd" d="M49.7682 15.9139V7.7594H54.1692V9.01515H51.4562V11.024H53.954V12.2777H51.4562V14.6582H54.2552V15.9139H49.7682Z" fill="#1A1919"/>
<path fill-rule="evenodd" clip-rule="evenodd" d="M59 85H240V5H59V85Z" fill="#FFFFFE"/>
<path d="M64.2124 35V25.6943H65.4438V35H64.2124ZM67.4751 35V28.2588H68.5034V29.2173C68.9985 28.4767 69.7137 28.1064 70.6489 28.1064C71.0552 28.1064 71.4276 28.1805 71.7661 28.3286C72.1089 28.4725 72.3649 28.6629 72.5342 28.8999C72.7035 29.1369 72.8219 29.4183 72.8896 29.7441C72.932 29.9557 72.9531 30.326 72.9531 30.855V35H71.8105V30.8994C71.8105 30.4339 71.7661 30.0869 71.6772 29.8584C71.5884 29.6257 71.4297 29.4416 71.2012 29.3062C70.9769 29.1665 70.7124 29.0967 70.4077 29.0967C69.9211 29.0967 69.5 29.2511 69.1445 29.5601C68.7933 29.869 68.6177 30.4551 68.6177 31.3184V35H67.4751ZM74.2671 32.207V31.0581H77.7773V32.207H74.2671ZM83.541 31.3501V30.2583L87.4829 30.252V33.7051C86.8778 34.1875 86.2536 34.5514 85.6104 34.7969C84.9671 35.0381 84.307 35.1587 83.6299 35.1587C82.7158 35.1587 81.8843 34.964 81.1353 34.5747C80.3905 34.1812 79.8276 33.6141 79.4468 32.8735C79.0659 32.133 78.8755 31.3057 78.8755 30.3916C78.8755 29.486 79.0638 28.6418 79.4404 27.8589C79.8213 27.0718 80.3672 26.4878 81.0781 26.1069C81.7891 25.7261 82.6079 25.5356 83.5347 25.5356C84.2075 25.5356 84.8148 25.6457 85.3564 25.8657C85.9023 26.0815 86.3298 26.3841 86.6387 26.7734C86.9476 27.1628 87.1825 27.6706 87.3433 28.2969L86.2324 28.6016C86.0928 28.1276 85.9193 27.7552 85.7119 27.4844C85.5046 27.2135 85.2083 26.9977 84.8232 26.8369C84.4382 26.6719 84.0107 26.5894 83.541 26.5894C82.9782 26.5894 82.4915 26.6761 82.0811 26.8496C81.6706 27.0189 81.3384 27.2432 81.0845 27.5225C80.8348 27.8018 80.6401 28.1086 80.5005 28.4429C80.2635 29.0184 80.145 29.6426 80.145 30.3154C80.145 31.1449 80.2868 31.8389 80.5703 32.3975C80.8581 32.9561 81.2749 33.3708 81.8208 33.6416C82.3667 33.9124 82.9465 34.0479 83.5601 34.0479C84.0933 34.0479 84.6138 33.9463 85.1216 33.7432C85.6294 33.5358 86.0145 33.3158 86.2769 33.083V31.3501H83.541ZM93.5576 34.1685C93.1344 34.5282 92.7261 34.7821 92.3325 34.9302C91.9432 35.0783 91.5243 35.1523 91.0757 35.1523C90.3351 35.1523 89.766 34.9725 89.3682 34.6128C88.9704 34.2489 88.7715 33.7855 88.7715 33.2227C88.7715 32.8926 88.8455 32.5921 88.9937 32.3213C89.146 32.0462 89.3428 31.8262 89.584 31.6611C89.8294 31.4961 90.1045 31.3713 90.4092 31.2866C90.6335 31.2274 90.972 31.1702 91.4248 31.1152C92.3473 31.0052 93.0265 30.874 93.4624 30.7217C93.4666 30.5651 93.4688 30.4657 93.4688 30.4233C93.4688 29.9578 93.3608 29.6299 93.145 29.4395C92.853 29.1813 92.4193 29.0522 91.8438 29.0522C91.3063 29.0522 90.9085 29.1475 90.6504 29.3379C90.3965 29.5241 90.2082 29.8563 90.0854 30.3345L88.9683 30.1821C89.0698 29.7039 89.237 29.3188 89.4697 29.0269C89.7025 28.7306 90.0389 28.5042 90.479 28.3477C90.9191 28.1868 91.429 28.1064 92.0088 28.1064C92.5843 28.1064 93.0519 28.1742 93.4116 28.3096C93.7713 28.445 94.0358 28.6164 94.2051 28.8237C94.3743 29.0269 94.4928 29.285 94.5605 29.5981C94.5986 29.7928 94.6177 30.144 94.6177 30.6519V32.1753C94.6177 33.2375 94.641 33.9103 94.6875 34.1938C94.7383 34.4731 94.8356 34.7419 94.9795 35H93.7861C93.6676 34.763 93.5915 34.4858 93.5576 34.1685ZM93.4624 31.6167C93.0477 31.786 92.4256 31.9299 91.5962 32.0483C91.1265 32.116 90.7943 32.1922 90.5996 32.2769C90.4049 32.3615 90.2547 32.4863 90.1489 32.6514C90.0431 32.8122 89.9902 32.992 89.9902 33.1909C89.9902 33.4956 90.1045 33.7495 90.333 33.9526C90.5658 34.1558 90.9043 34.2573 91.3486 34.2573C91.7887 34.2573 92.1802 34.1621 92.5229 33.9717C92.8657 33.777 93.1175 33.5125 93.2783 33.1782C93.401 32.9201 93.4624 32.5392 93.4624 32.0356V31.6167ZM96.395 35V28.2588H97.417V29.2046C97.6286 28.8745 97.91 28.61 98.2612 28.4111C98.6125 28.208 99.0124 28.1064 99.4609 28.1064C99.9603 28.1064 100.369 28.2101 100.686 28.4175C101.008 28.6248 101.234 28.9147 101.365 29.2871C101.898 28.5 102.592 28.1064 103.447 28.1064C104.116 28.1064 104.63 28.2926 104.99 28.665C105.349 29.0332 105.529 29.6024 105.529 30.3726V35H104.393V30.7534C104.393 30.2964 104.355 29.9684 104.279 29.7695C104.207 29.5664 104.074 29.4035 103.879 29.2808C103.684 29.158 103.456 29.0967 103.193 29.0967C102.719 29.0967 102.326 29.2554 102.013 29.5728C101.7 29.8859 101.543 30.3895 101.543 31.0835V35H100.4V30.6201C100.4 30.1123 100.307 29.7314 100.121 29.4775C99.9349 29.2236 99.6302 29.0967 99.207 29.0967C98.8854 29.0967 98.5871 29.1813 98.312 29.3506C98.0412 29.5199 97.8444 29.7674 97.7217 30.0933C97.599 30.4191 97.5376 30.8888 97.5376 31.5024V35H96.395ZM111.839 32.8291L113.02 32.9751C112.833 33.6649 112.488 34.2002 111.985 34.5811C111.481 34.9619 110.838 35.1523 110.055 35.1523C109.069 35.1523 108.286 34.8498 107.707 34.2446C107.131 33.6353 106.843 32.7826 106.843 31.6865C106.843 30.5524 107.135 29.6722 107.719 29.0459C108.303 28.4196 109.061 28.1064 109.992 28.1064C110.893 28.1064 111.629 28.4132 112.201 29.0269C112.772 29.6405 113.058 30.5037 113.058 31.6167C113.058 31.6844 113.056 31.786 113.051 31.9214H108.024C108.066 32.6619 108.276 33.229 108.652 33.6226C109.029 34.0161 109.499 34.2129 110.062 34.2129C110.48 34.2129 110.838 34.1029 111.134 33.8828C111.431 33.6628 111.665 33.3115 111.839 32.8291ZM108.087 30.9819H111.852C111.801 30.4149 111.657 29.9896 111.42 29.7061C111.056 29.266 110.584 29.0459 110.004 29.0459C109.48 29.0459 109.037 29.2215 108.678 29.5728C108.322 29.924 108.125 30.3937 108.087 30.9819ZM118.225 35V25.6943H121.735C122.353 25.6943 122.825 25.724 123.15 25.7832C123.607 25.8594 123.99 26.0054 124.299 26.2212C124.608 26.4328 124.856 26.7311 125.042 27.1162C125.232 27.5013 125.328 27.9245 125.328 28.3857C125.328 29.1771 125.076 29.8478 124.572 30.3979C124.069 30.9438 123.159 31.2168 121.843 31.2168H119.456V35H118.225ZM119.456 30.1187H121.862C122.657 30.1187 123.222 29.9705 123.557 29.6743C123.891 29.3781 124.058 28.9613 124.058 28.4238C124.058 28.0345 123.959 27.7023 123.76 27.4272C123.565 27.1479 123.307 26.9639 122.985 26.875C122.778 26.82 122.395 26.7925 121.836 26.7925H119.456V30.1187ZM131.167 35V34.0098C130.643 34.7715 129.93 35.1523 129.028 35.1523C128.631 35.1523 128.258 35.0762 127.911 34.9238C127.568 34.7715 127.312 34.5811 127.143 34.3525C126.978 34.1198 126.862 33.8363 126.794 33.502C126.747 33.2777 126.724 32.9222 126.724 32.4355V28.2588H127.867V31.9976C127.867 32.5942 127.89 32.9963 127.937 33.2036C128.008 33.5041 128.161 33.741 128.394 33.9146C128.626 34.0838 128.914 34.1685 129.257 34.1685C129.6 34.1685 129.921 34.0817 130.222 33.9082C130.522 33.7305 130.734 33.4914 130.856 33.1909C130.983 32.8862 131.047 32.4461 131.047 31.8706V28.2588H132.189V35H131.167ZM133.973 35V28.2588H135.001V29.2808C135.264 28.8026 135.505 28.4873 135.725 28.335C135.949 28.1826 136.195 28.1064 136.461 28.1064C136.847 28.1064 137.238 28.2292 137.636 28.4746L137.242 29.5347C136.963 29.3696 136.684 29.2871 136.404 29.2871C136.155 29.2871 135.93 29.3633 135.731 29.5156C135.533 29.6637 135.391 29.8711 135.306 30.1377C135.179 30.5439 135.116 30.9883 135.116 31.4707V35H133.973ZM142.714 32.5308L143.837 32.6768C143.715 33.4512 143.399 34.0584 142.892 34.4985C142.388 34.9344 141.768 35.1523 141.032 35.1523C140.109 35.1523 139.367 34.8519 138.804 34.251C138.245 33.6458 137.966 32.7804 137.966 31.6548C137.966 30.9269 138.086 30.29 138.328 29.7441C138.569 29.1982 138.935 28.7899 139.426 28.519C139.921 28.244 140.458 28.1064 141.038 28.1064C141.77 28.1064 142.369 28.2926 142.834 28.665C143.3 29.0332 143.598 29.5579 143.729 30.2393L142.619 30.4106C142.513 29.9578 142.325 29.6172 142.054 29.3887C141.787 29.1602 141.463 29.0459 141.083 29.0459C140.507 29.0459 140.039 29.2533 139.68 29.668C139.32 30.0785 139.14 30.7301 139.14 31.623C139.14 32.5286 139.314 33.1867 139.661 33.5972C140.008 34.0076 140.46 34.2129 141.019 34.2129C141.468 34.2129 141.842 34.0754 142.143 33.8003C142.443 33.5252 142.633 33.1021 142.714 32.5308ZM144.815 35V25.6943H145.958V29.0332C146.491 28.4154 147.164 28.1064 147.976 28.1064C148.475 28.1064 148.909 28.2059 149.277 28.4048C149.646 28.5994 149.908 28.8703 150.064 29.2173C150.225 29.5643 150.306 30.0679 150.306 30.728V35H149.163V30.728C149.163 30.1567 149.038 29.742 148.789 29.4839C148.543 29.2215 148.194 29.0903 147.741 29.0903C147.403 29.0903 147.083 29.1792 146.783 29.3569C146.486 29.5304 146.275 29.7674 146.148 30.0679C146.021 30.3683 145.958 30.783 145.958 31.312V35H144.815ZM156.45 34.1685C156.027 34.5282 155.619 34.7821 155.225 34.9302C154.836 35.0783 154.417 35.1523 153.968 35.1523C153.228 35.1523 152.659 34.9725 152.261 34.6128C151.863 34.2489 151.664 33.7855 151.664 33.2227C151.664 32.8926 151.738 32.5921 151.886 32.3213C152.039 32.0462 152.235 31.8262 152.477 31.6611C152.722 31.4961 152.997 31.3713 153.302 31.2866C153.526 31.2274 153.865 31.1702 154.317 31.1152C155.24 31.0052 155.919 30.874 156.355 30.7217C156.359 30.5651 156.361 30.4657 156.361 30.4233C156.361 29.9578 156.253 29.6299 156.038 29.4395C155.746 29.1813 155.312 29.0522 154.736 29.0522C154.199 29.0522 153.801 29.1475 153.543 29.3379C153.289 29.5241 153.101 29.8563 152.978 30.3345L151.861 30.1821C151.962 29.7039 152.13 29.3188 152.362 29.0269C152.595 28.7306 152.931 28.5042 153.372 28.3477C153.812 28.1868 154.322 28.1064 154.901 28.1064C155.477 28.1064 155.944 28.1742 156.304 28.3096C156.664 28.445 156.928 28.6164 157.098 28.8237C157.267 29.0269 157.385 29.285 157.453 29.5981C157.491 29.7928 157.51 30.144 157.51 30.6519V32.1753C157.51 33.2375 157.534 33.9103 157.58 34.1938C157.631 34.4731 157.728 34.7419 157.872 35H156.679C156.56 34.763 156.484 34.4858 156.45 34.1685ZM156.355 31.6167C155.94 31.786 155.318 31.9299 154.489 32.0483C154.019 32.116 153.687 32.1922 153.492 32.2769C153.298 32.3615 153.147 32.4863 153.042 32.6514C152.936 32.8122 152.883 32.992 152.883 33.1909C152.883 33.4956 152.997 33.7495 153.226 33.9526C153.458 34.1558 153.797 34.2573 154.241 34.2573C154.681 34.2573 155.073 34.1621 155.416 33.9717C155.758 33.777 156.01 33.5125 156.171 33.1782C156.294 32.9201 156.355 32.5392 156.355 32.0356V31.6167ZM158.831 32.9878L159.96 32.8101C160.024 33.2629 160.2 33.6099 160.487 33.8511C160.779 34.0923 161.186 34.2129 161.706 34.2129C162.231 34.2129 162.62 34.1071 162.874 33.8955C163.128 33.6797 163.255 33.4279 163.255 33.1401C163.255 32.882 163.143 32.6789 162.918 32.5308C162.762 32.4292 162.373 32.3001 161.75 32.1436C160.913 31.932 160.331 31.75 160.005 31.5977C159.683 31.4411 159.438 31.2274 159.269 30.9565C159.104 30.6815 159.021 30.3789 159.021 30.0488C159.021 29.7484 159.089 29.4712 159.224 29.2173C159.364 28.9591 159.552 28.7454 159.789 28.5762C159.967 28.445 160.208 28.335 160.513 28.2461C160.822 28.153 161.152 28.1064 161.503 28.1064C162.032 28.1064 162.495 28.1826 162.893 28.335C163.295 28.4873 163.591 28.6947 163.782 28.957C163.972 29.2152 164.103 29.5622 164.175 29.998L163.058 30.1504C163.007 29.8034 162.859 29.5326 162.614 29.3379C162.373 29.1432 162.03 29.0459 161.585 29.0459C161.061 29.0459 160.686 29.1326 160.462 29.3062C160.238 29.4797 160.125 29.6828 160.125 29.9155C160.125 30.0636 160.172 30.1969 160.265 30.3154C160.358 30.4382 160.504 30.5397 160.703 30.6201C160.817 30.6624 161.154 30.7598 161.712 30.9121C162.521 31.1279 163.083 31.3057 163.401 31.4453C163.722 31.5807 163.974 31.7796 164.156 32.042C164.338 32.3044 164.429 32.6302 164.429 33.0195C164.429 33.4004 164.317 33.7601 164.093 34.0986C163.873 34.4329 163.553 34.6932 163.134 34.8794C162.715 35.0614 162.241 35.1523 161.712 35.1523C160.836 35.1523 160.168 34.9704 159.707 34.6064C159.25 34.2425 158.958 33.703 158.831 32.9878ZM170.402 32.8291L171.583 32.9751C171.397 33.6649 171.052 34.2002 170.548 34.5811C170.045 34.9619 169.402 35.1523 168.619 35.1523C167.633 35.1523 166.85 34.8498 166.27 34.2446C165.694 33.6353 165.407 32.7826 165.407 31.6865C165.407 30.5524 165.699 29.6722 166.283 29.0459C166.867 28.4196 167.624 28.1064 168.555 28.1064C169.457 28.1064 170.193 28.4132 170.764 29.0269C171.335 29.6405 171.621 30.5037 171.621 31.6167C171.621 31.6844 171.619 31.786 171.615 31.9214H166.587C166.63 32.6619 166.839 33.229 167.216 33.6226C167.592 34.0161 168.062 34.2129 168.625 34.2129C169.044 34.2129 169.402 34.1029 169.698 33.8828C169.994 33.6628 170.229 33.3115 170.402 32.8291ZM166.651 30.9819H170.415C170.364 30.4149 170.22 29.9896 169.983 29.7061C169.619 29.266 169.148 29.0459 168.568 29.0459C168.043 29.0459 167.601 29.2215 167.241 29.5728C166.886 29.924 166.689 30.3937 166.651 30.9819ZM172.567 32.9878L173.697 32.8101C173.76 33.2629 173.936 33.6099 174.224 33.8511C174.516 34.0923 174.922 34.2129 175.442 34.2129C175.967 34.2129 176.356 34.1071 176.61 33.8955C176.864 33.6797 176.991 33.4279 176.991 33.1401C176.991 32.882 176.879 32.6789 176.655 32.5308C176.498 32.4292 176.109 32.3001 175.487 32.1436C174.649 31.932 174.067 31.75 173.741 31.5977C173.42 31.4411 173.174 31.2274 173.005 30.9565C172.84 30.6815 172.757 30.3789 172.757 30.0488C172.757 29.7484 172.825 29.4712 172.96 29.2173C173.1 28.9591 173.288 28.7454 173.525 28.5762C173.703 28.445 173.944 28.335 174.249 28.2461C174.558 28.153 174.888 28.1064 175.239 28.1064C175.768 28.1064 176.232 28.1826 176.629 28.335C177.031 28.4873 177.328 28.6947 177.518 28.957C177.708 29.2152 177.84 29.5622 177.912 29.998L176.794 30.1504C176.744 29.8034 176.596 29.5326 176.35 29.3379C176.109 29.1432 175.766 29.0459 175.322 29.0459C174.797 29.0459 174.423 29.1326 174.198 29.3062C173.974 29.4797 173.862 29.6828 173.862 29.9155C173.862 30.0636 173.908 30.1969 174.001 30.3154C174.095 30.4382 174.241 30.5397 174.439 30.6201C174.554 30.6624 174.89 30.7598 175.449 30.9121C176.257 31.1279 176.82 31.3057 177.137 31.4453C177.459 31.5807 177.711 31.7796 177.893 32.042C178.075 32.3044 178.166 32.6302 178.166 33.0195C178.166 33.4004 178.053 33.7601 177.829 34.0986C177.609 34.4329 177.29 34.6932 176.871 34.8794C176.452 35.0614 175.978 35.1523 175.449 35.1523C174.573 35.1523 173.904 34.9704 173.443 34.6064C172.986 34.2425 172.694 33.703 172.567 32.9878ZM185.326 37.7358C184.695 36.9403 184.162 36.0093 183.726 34.9429C183.29 33.8765 183.072 32.772 183.072 31.6294C183.072 30.6222 183.235 29.6574 183.561 28.7349C183.942 27.6642 184.53 26.5978 185.326 25.5356H186.145C185.632 26.4159 185.294 27.0443 185.129 27.4209C184.871 28.0049 184.668 28.6143 184.52 29.249C184.338 30.0404 184.247 30.8359 184.247 31.6357C184.247 33.6712 184.879 35.7046 186.145 37.7358H185.326ZM187.827 35V25.6943H189.058V35H187.827ZM191.089 35V28.2588H192.118V29.2173C192.613 28.4767 193.328 28.1064 194.263 28.1064C194.669 28.1064 195.042 28.1805 195.38 28.3286C195.723 28.4725 195.979 28.6629 196.148 28.8999C196.318 29.1369 196.436 29.4183 196.504 29.7441C196.546 29.9557 196.567 30.326 196.567 30.855V35H195.425V30.8994C195.425 30.4339 195.38 30.0869 195.292 29.8584C195.203 29.6257 195.044 29.4416 194.815 29.3062C194.591 29.1665 194.327 29.0967 194.022 29.0967C193.535 29.0967 193.114 29.2511 192.759 29.5601C192.408 29.869 192.232 30.4551 192.232 31.3184V35H191.089ZM202.725 32.5308L203.848 32.6768C203.725 33.4512 203.41 34.0584 202.902 34.4985C202.399 34.9344 201.779 35.1523 201.042 35.1523C200.12 35.1523 199.377 34.8519 198.814 34.251C198.256 33.6458 197.977 32.7804 197.977 31.6548C197.977 30.9269 198.097 30.29 198.338 29.7441C198.58 29.1982 198.946 28.7899 199.437 28.519C199.932 28.244 200.469 28.1064 201.049 28.1064C201.781 28.1064 202.38 28.2926 202.845 28.665C203.311 29.0332 203.609 29.5579 203.74 30.2393L202.629 30.4106C202.524 29.9578 202.335 29.6172 202.064 29.3887C201.798 29.1602 201.474 29.0459 201.093 29.0459C200.518 29.0459 200.05 29.2533 199.69 29.668C199.331 30.0785 199.151 30.7301 199.151 31.623C199.151 32.5286 199.324 33.1867 199.671 33.5972C200.018 34.0076 200.471 34.2129 201.03 34.2129C201.478 34.2129 201.853 34.0754 202.153 33.8003C202.454 33.5252 202.644 33.1021 202.725 32.5308ZM204.8 35V25.6943H205.943V35H204.8ZM212.138 35V34.0098C211.613 34.7715 210.9 35.1523 209.999 35.1523C209.601 35.1523 209.229 35.0762 208.882 34.9238C208.539 34.7715 208.283 34.5811 208.114 34.3525C207.949 34.1198 207.832 33.8363 207.765 33.502C207.718 33.2777 207.695 32.9222 207.695 32.4355V28.2588H208.837V31.9976C208.837 32.5942 208.861 32.9963 208.907 33.2036C208.979 33.5041 209.132 33.741 209.364 33.9146C209.597 34.0838 209.885 34.1685 210.228 34.1685C210.57 34.1685 210.892 34.0817 211.192 33.9082C211.493 33.7305 211.704 33.4914 211.827 33.1909C211.954 32.8862 212.018 32.4461 212.018 31.8706V28.2588H213.16V35H212.138ZM219.33 35V34.1494C218.903 34.818 218.274 35.1523 217.445 35.1523C216.907 35.1523 216.412 35.0042 215.959 34.708C215.511 34.4118 215.162 33.9992 214.912 33.4702C214.667 32.937 214.544 32.3255 214.544 31.6357C214.544 30.9629 214.656 30.3535 214.88 29.8076C215.105 29.2575 215.441 28.8364 215.89 28.5444C216.338 28.2524 216.84 28.1064 217.394 28.1064C217.8 28.1064 218.162 28.1932 218.479 28.3667C218.797 28.536 219.055 28.7581 219.254 29.0332V25.6943H220.39V35H219.33ZM215.718 31.6357C215.718 32.499 215.9 33.1444 216.264 33.5718C216.628 33.9992 217.058 34.2129 217.553 34.2129C218.052 34.2129 218.475 34.0098 218.822 33.6035C219.174 33.193 219.349 32.5688 219.349 31.731C219.349 30.8084 219.171 30.1313 218.816 29.6997C218.46 29.2681 218.022 29.0522 217.502 29.0522C216.994 29.0522 216.569 29.2596 216.226 29.6743C215.888 30.089 215.718 30.7428 215.718 31.6357ZM226.808 32.8291L227.988 32.9751C227.802 33.6649 227.457 34.2002 226.954 34.5811C226.45 34.9619 225.807 35.1523 225.024 35.1523C224.038 35.1523 223.255 34.8498 222.675 34.2446C222.1 33.6353 221.812 32.7826 221.812 31.6865C221.812 30.5524 222.104 29.6722 222.688 29.0459C223.272 28.4196 224.029 28.1064 224.96 28.1064C225.862 28.1064 226.598 28.4132 227.169 29.0269C227.741 29.6405 228.026 30.5037 228.026 31.6167C228.026 31.6844 228.024 31.786 228.02 31.9214H222.993C223.035 32.6619 223.244 33.229 223.621 33.6226C223.998 34.0161 224.467 34.2129 225.03 34.2129C225.449 34.2129 225.807 34.1029 226.103 33.8828C226.399 33.6628 226.634 33.3115 226.808 32.8291ZM223.056 30.9819H226.82C226.77 30.4149 226.626 29.9896 226.389 29.7061C226.025 29.266 225.553 29.0459 224.973 29.0459C224.448 29.0459 224.006 29.2215 223.646 29.5728C223.291 29.924 223.094 30.3937 223.056 30.9819ZM228.972 32.9878L230.102 32.8101C230.166 33.2629 230.341 33.6099 230.629 33.8511C230.921 34.0923 231.327 34.2129 231.848 34.2129C232.372 34.2129 232.762 34.1071 233.016 33.8955C233.27 33.6797 233.396 33.4279 233.396 33.1401C233.396 32.882 233.284 32.6789 233.06 32.5308C232.903 32.4292 232.514 32.3001 231.892 32.1436C231.054 31.932 230.472 31.75 230.146 31.5977C229.825 31.4411 229.579 31.2274 229.41 30.9565C229.245 30.6815 229.163 30.3789 229.163 30.0488C229.163 29.7484 229.23 29.4712 229.366 29.2173C229.505 28.9591 229.694 28.7454 229.931 28.5762C230.108 28.445 230.35 28.335 230.654 28.2461C230.963 28.153 231.293 28.1064 231.645 28.1064C232.174 28.1064 232.637 28.1826 233.035 28.335C233.437 28.4873 233.733 28.6947 233.923 28.957C234.114 29.2152 234.245 29.5622 234.317 29.998L233.2 30.1504C233.149 29.8034 233.001 29.5326 232.755 29.3379C232.514 29.1432 232.171 29.0459 231.727 29.0459C231.202 29.0459 230.828 29.1326 230.604 29.3062C230.379 29.4797 230.267 29.6828 230.267 29.9155C230.267 30.0636 230.314 30.1969 230.407 30.3154C230.5 30.4382 230.646 30.5397 230.845 30.6201C230.959 30.6624 231.295 30.7598 231.854 30.9121C232.662 31.1279 233.225 31.3057 233.542 31.4453C233.864 31.5807 234.116 31.7796 234.298 32.042C234.48 32.3044 234.571 32.6302 234.571 33.0195C234.571 33.4004 234.459 33.7601 234.234 34.0986C234.014 34.4329 233.695 34.6932 233.276 34.8794C232.857 35.0614 232.383 35.1523 231.854 35.1523C230.978 35.1523 230.309 34.9704 229.848 34.6064C229.391 34.2425 229.099 33.703 228.972 32.9878ZM64.022 50V40.6943H68.1479C68.9774 40.6943 69.6079 40.779 70.0396 40.9482C70.4712 41.1133 70.8161 41.4074 71.0742 41.8306C71.3324 42.2537 71.4614 42.7214 71.4614 43.2334C71.4614 43.8936 71.2477 44.45 70.8203 44.9028C70.3929 45.3556 69.7327 45.6434 68.8398 45.7661C69.1657 45.9227 69.4132 46.0771 69.5825 46.2295C69.9422 46.5596 70.2829 46.9722 70.6045 47.4673L72.2231 50H70.6743L69.4429 48.064C69.0832 47.5054 68.7869 47.078 68.5542 46.7817C68.3215 46.4855 68.112 46.2782 67.9258 46.1597C67.7438 46.0412 67.5576 45.9587 67.3672 45.9121C67.2275 45.8825 66.999 45.8677 66.6816 45.8677H65.2534V50H64.022ZM65.2534 44.8013H67.9004C68.4632 44.8013 68.9033 44.7441 69.2207 44.6299C69.5381 44.5114 69.7793 44.3252 69.9443 44.0713C70.1094 43.8132 70.1919 43.5339 70.1919 43.2334C70.1919 42.7933 70.0311 42.4315 69.7095 42.1479C69.3921 41.8644 68.8885 41.7227 68.1987 41.7227H65.2534V44.8013ZM77.6504 49.1685C77.2272 49.5282 76.8188 49.7821 76.4253 49.9302C76.036 50.0783 75.617 50.1523 75.1685 50.1523C74.4279 50.1523 73.8587 49.9725 73.4609 49.6128C73.0632 49.2489 72.8643 48.7855 72.8643 48.2227C72.8643 47.8926 72.9383 47.5921 73.0864 47.3213C73.2388 47.0462 73.4355 46.8262 73.6768 46.6611C73.9222 46.4961 74.1973 46.3713 74.502 46.2866C74.7262 46.2274 75.0648 46.1702 75.5176 46.1152C76.4401 46.0052 77.1193 45.874 77.5552 45.7217C77.5594 45.5651 77.5615 45.4657 77.5615 45.4233C77.5615 44.9578 77.4536 44.6299 77.2378 44.4395C76.9458 44.1813 76.512 44.0522 75.9365 44.0522C75.3991 44.0522 75.0013 44.1475 74.7432 44.3379C74.4893 44.5241 74.3009 44.8563 74.1782 45.3345L73.061 45.1821C73.1626 44.7039 73.3298 44.3188 73.5625 44.0269C73.7952 43.7306 74.1317 43.5042 74.5718 43.3477C75.0119 43.1868 75.5218 43.1064 76.1016 43.1064C76.6771 43.1064 77.1447 43.1742 77.5044 43.3096C77.8641 43.445 78.1286 43.6164 78.2979 43.8237C78.4671 44.0269 78.5856 44.285 78.6533 44.5981C78.6914 44.7928 78.7104 45.144 78.7104 45.6519V47.1753C78.7104 48.2375 78.7337 48.9103 78.7803 49.1938C78.8311 49.4731 78.9284 49.7419 79.0723 50H77.8789C77.7604 49.763 77.6842 49.4858 77.6504 49.1685ZM77.5552 46.6167C77.1405 46.786 76.5184 46.9299 75.689 47.0483C75.2192 47.116 74.887 47.1922 74.6924 47.2769C74.4977 47.3615 74.3475 47.4863 74.2417 47.6514C74.1359 47.8122 74.083 47.992 74.083 48.1909C74.083 48.4956 74.1973 48.7495 74.4258 48.9526C74.6585 49.1558 74.9971 49.2573 75.4414 49.2573C75.8815 49.2573 76.2729 49.1621 76.6157 48.9717C76.9585 48.777 77.2103 48.5125 77.3711 48.1782C77.4938 47.9201 77.5552 47.5392 77.5552 47.0356V46.6167ZM80.4878 50V43.2588H81.5161V44.2173C82.0112 43.4767 82.7264 43.1064 83.6616 43.1064C84.0679 43.1064 84.4403 43.1805 84.7788 43.3286C85.1216 43.4725 85.3776 43.6629 85.5469 43.8999C85.7161 44.1369 85.8346 44.4183 85.9023 44.7441C85.9447 44.9557 85.9658 45.326 85.9658 45.855V50H84.8232V45.8994C84.8232 45.4339 84.7788 45.0869 84.6899 44.8584C84.6011 44.6257 84.4424 44.4416 84.2139 44.3062C83.9896 44.1665 83.7251 44.0967 83.4204 44.0967C82.9338 44.0967 82.5127 44.2511 82.1572 44.5601C81.806 44.869 81.6304 45.4551 81.6304 46.3184V50H80.4878ZM92.0977 50V49.1494C91.6702 49.818 91.0418 50.1523 90.2124 50.1523C89.675 50.1523 89.1799 50.0042 88.7271 49.708C88.2785 49.4118 87.9294 48.9992 87.6797 48.4702C87.4342 47.937 87.3115 47.3255 87.3115 46.6357C87.3115 45.9629 87.4237 45.3535 87.6479 44.8076C87.8722 44.2575 88.2087 43.8364 88.6572 43.5444C89.1058 43.2524 89.6073 43.1064 90.1616 43.1064C90.5679 43.1064 90.9297 43.1932 91.2471 43.3667C91.5645 43.536 91.8226 43.7581 92.0215 44.0332V40.6943H93.1577V50H92.0977ZM88.4858 46.6357C88.4858 47.499 88.6678 48.1444 89.0317 48.5718C89.3957 48.9992 89.8252 49.2129 90.3203 49.2129C90.8197 49.2129 91.2428 49.0098 91.5898 48.6035C91.9411 48.193 92.1167 47.5688 92.1167 46.731C92.1167 45.8084 91.939 45.1313 91.5835 44.6997C91.228 44.2681 90.79 44.0522 90.2695 44.0522C89.7617 44.0522 89.3364 44.2596 88.9937 44.6743C88.6551 45.089 88.4858 45.7428 88.4858 46.6357ZM94.5352 46.6294C94.5352 45.381 94.8822 44.4564 95.5762 43.8555C96.1559 43.3561 96.8626 43.1064 97.6963 43.1064C98.623 43.1064 99.3805 43.4111 99.9688 44.0205C100.557 44.6257 100.851 45.4635 100.851 46.5342C100.851 47.4017 100.72 48.0851 100.458 48.5845C100.199 49.0796 99.8206 49.4647 99.3213 49.7397C98.8262 50.0148 98.2845 50.1523 97.6963 50.1523C96.7526 50.1523 95.9888 49.8498 95.4048 49.2446C94.825 48.6395 94.5352 47.7677 94.5352 46.6294ZM95.7095 46.6294C95.7095 47.4927 95.8978 48.1401 96.2744 48.5718C96.651 48.9992 97.125 49.2129 97.6963 49.2129C98.2633 49.2129 98.7352 48.9971 99.1118 48.5654C99.4884 48.1338 99.6768 47.4757 99.6768 46.5913C99.6768 45.7576 99.4863 45.1271 99.1055 44.6997C98.7288 44.2681 98.2591 44.0522 97.6963 44.0522C97.125 44.0522 96.651 44.266 96.2744 44.6934C95.8978 45.1208 95.7095 45.7661 95.7095 46.6294ZM102.197 50V43.2588H103.219V44.2046C103.43 43.8745 103.712 43.61 104.063 43.4111C104.414 43.208 104.814 43.1064 105.263 43.1064C105.762 43.1064 106.17 43.2101 106.488 43.4175C106.809 43.6248 107.036 43.9147 107.167 44.2871C107.7 43.5 108.394 43.1064 109.249 43.1064C109.918 43.1064 110.432 43.2926 110.792 43.665C111.151 44.0332 111.331 44.6024 111.331 45.3726V50H110.195V45.7534C110.195 45.2964 110.157 44.9684 110.081 44.7695C110.009 44.5664 109.875 44.4035 109.681 44.2808C109.486 44.158 109.257 44.0967 108.995 44.0967C108.521 44.0967 108.128 44.2554 107.814 44.5728C107.501 44.8859 107.345 45.3895 107.345 46.0835V50H106.202V45.6201C106.202 45.1123 106.109 44.7314 105.923 44.4775C105.737 44.2236 105.432 44.0967 105.009 44.0967C104.687 44.0967 104.389 44.1813 104.114 44.3506C103.843 44.5199 103.646 44.7674 103.523 45.0933C103.401 45.4191 103.339 45.8888 103.339 46.5024V50H102.197ZM117 50V40.6943H118.231V50H117ZM122.757 48.978L122.922 49.9873C122.6 50.055 122.312 50.0889 122.059 50.0889C121.644 50.0889 121.322 50.0233 121.094 49.8921C120.865 49.7609 120.704 49.5895 120.611 49.3779C120.518 49.1621 120.472 48.7114 120.472 48.0259V44.1475H119.634V43.2588H120.472V41.5894L121.608 40.9038V43.2588H122.757V44.1475H121.608V48.0894C121.608 48.4152 121.627 48.6247 121.665 48.7178C121.707 48.8109 121.773 48.8849 121.862 48.9399C121.955 48.995 122.086 49.0225 122.255 49.0225C122.382 49.0225 122.549 49.0076 122.757 48.978ZM128.495 47.8291L129.676 47.9751C129.49 48.6649 129.145 49.2002 128.641 49.5811C128.138 49.9619 127.494 50.1523 126.711 50.1523C125.725 50.1523 124.943 49.8498 124.363 49.2446C123.787 48.6353 123.5 47.7826 123.5 46.6865C123.5 45.5524 123.792 44.6722 124.375 44.0459C124.959 43.4196 125.717 43.1064 126.648 43.1064C127.549 43.1064 128.286 43.4132 128.857 44.0269C129.428 44.6405 129.714 45.5037 129.714 46.6167C129.714 46.6844 129.712 46.786 129.708 46.9214H124.68C124.722 47.6619 124.932 48.229 125.309 48.6226C125.685 49.0161 126.155 49.2129 126.718 49.2129C127.137 49.2129 127.494 49.1029 127.791 48.8828C128.087 48.6628 128.322 48.3115 128.495 47.8291ZM124.744 45.9819H128.508C128.457 45.4149 128.313 44.9896 128.076 44.7061C127.712 44.266 127.24 44.0459 126.661 44.0459C126.136 44.0459 125.694 44.2215 125.334 44.5728C124.979 44.924 124.782 45.3937 124.744 45.9819ZM131.117 50V43.2588H132.139V44.2046C132.35 43.8745 132.632 43.61 132.983 43.4111C133.334 43.208 133.734 43.1064 134.183 43.1064C134.682 43.1064 135.09 43.2101 135.408 43.4175C135.729 43.6248 135.956 43.9147 136.087 44.2871C136.62 43.5 137.314 43.1064 138.169 43.1064C138.838 43.1064 139.352 43.2926 139.711 43.665C140.071 44.0332 140.251 44.6024 140.251 45.3726V50H139.115V45.7534C139.115 45.2964 139.077 44.9684 139 44.7695C138.929 44.5664 138.795 44.4035 138.601 44.2808C138.406 44.158 138.177 44.0967 137.915 44.0967C137.441 44.0967 137.048 44.2554 136.734 44.5728C136.421 44.8859 136.265 45.3895 136.265 46.0835V50H135.122V45.6201C135.122 45.1123 135.029 44.7314 134.843 44.4775C134.657 44.2236 134.352 44.0967 133.929 44.0967C133.607 44.0967 133.309 44.1813 133.034 44.3506C132.763 44.5199 132.566 44.7674 132.443 45.0933C132.321 45.4191 132.259 45.8888 132.259 46.5024V50H131.117ZM141.489 47.9878L142.619 47.8101C142.682 48.2629 142.858 48.6099 143.146 48.8511C143.438 49.0923 143.844 49.2129 144.364 49.2129C144.889 49.2129 145.278 49.1071 145.532 48.8955C145.786 48.6797 145.913 48.4279 145.913 48.1401C145.913 47.882 145.801 47.6789 145.577 47.5308C145.42 47.4292 145.031 47.3001 144.409 47.1436C143.571 46.932 142.989 46.75 142.663 46.5977C142.341 46.4411 142.096 46.2274 141.927 45.9565C141.762 45.6815 141.679 45.3789 141.679 45.0488C141.679 44.7484 141.747 44.4712 141.882 44.2173C142.022 43.9591 142.21 43.7454 142.447 43.5762C142.625 43.445 142.866 43.335 143.171 43.2461C143.48 43.153 143.81 43.1064 144.161 43.1064C144.69 43.1064 145.153 43.1826 145.551 43.335C145.953 43.4873 146.25 43.6947 146.44 43.957C146.63 44.2152 146.762 44.5622 146.833 44.998L145.716 45.1504C145.666 44.8034 145.517 44.5326 145.272 44.3379C145.031 44.1432 144.688 44.0459 144.244 44.0459C143.719 44.0459 143.344 44.1326 143.12 44.3062C142.896 44.4797 142.784 44.6828 142.784 44.9155C142.784 45.0636 142.83 45.1969 142.923 45.3154C143.016 45.4382 143.162 45.5397 143.361 45.6201C143.476 45.6624 143.812 45.7598 144.371 45.9121C145.179 46.1279 145.742 46.3057 146.059 46.4453C146.381 46.5807 146.632 46.7796 146.814 47.042C146.996 47.3044 147.087 47.6302 147.087 48.0195C147.087 48.4004 146.975 48.7601 146.751 49.0986C146.531 49.4329 146.211 49.6932 145.792 49.8794C145.374 50.0614 144.9 50.1523 144.371 50.1523C143.495 50.1523 142.826 49.9704 142.365 49.6064C141.908 49.2425 141.616 48.703 141.489 47.9878ZM149.195 52.7358H148.376C149.641 50.7046 150.274 48.6712 150.274 46.6357C150.274 45.8402 150.183 45.0509 150.001 44.2681C149.857 43.6333 149.656 43.0239 149.398 42.4399C149.233 42.0591 148.892 41.4243 148.376 40.5356H149.195C149.99 41.5978 150.579 42.6642 150.959 43.7349C151.285 44.6574 151.448 45.6222 151.448 46.6294C151.448 47.772 151.228 48.8765 150.788 49.9429C150.352 51.0093 149.821 51.9403 149.195 52.7358ZM70.1094 55.6943H71.3408V61.0708C71.3408 62.006 71.235 62.7487 71.0234 63.2988C70.8118 63.849 70.4289 64.2975 69.8745 64.6445C69.3244 64.9873 68.6007 65.1587 67.7036 65.1587C66.8319 65.1587 66.1188 65.0085 65.5645 64.708C65.0101 64.4076 64.6144 63.9738 64.3774 63.4067C64.1405 62.8354 64.022 62.0568 64.022 61.0708V55.6943H65.2534V61.0645C65.2534 61.8727 65.3275 62.4694 65.4756 62.8545C65.6279 63.2354 65.8861 63.5295 66.25 63.7368C66.6182 63.9442 67.0667 64.0479 67.5957 64.0479C68.5013 64.0479 69.1466 63.8426 69.5317 63.4321C69.9168 63.0216 70.1094 62.2324 70.1094 61.0645V55.6943ZM72.7944 62.9878L73.9243 62.8101C73.9878 63.2629 74.1634 63.6099 74.4512 63.8511C74.7432 64.0923 75.1494 64.2129 75.6699 64.2129C76.1947 64.2129 76.584 64.1071 76.8379 63.8955C77.0918 63.6797 77.2188 63.4279 77.2188 63.1401C77.2188 62.882 77.1066 62.6789 76.8823 62.5308C76.7257 62.4292 76.3364 62.3001 75.7144 62.1436C74.8765 61.932 74.2946 61.75 73.9688 61.5977C73.6471 61.4411 73.4017 61.2274 73.2324 60.9565C73.0674 60.6815 72.9849 60.3789 72.9849 60.0488C72.9849 59.7484 73.0526 59.4712 73.188 59.2173C73.3276 58.9591 73.516 58.7454 73.7529 58.5762C73.9307 58.445 74.1719 58.335 74.4766 58.2461C74.7855 58.153 75.1156 58.1064 75.4668 58.1064C75.9958 58.1064 76.4591 58.1826 76.8569 58.335C77.259 58.4873 77.5552 58.6947 77.7456 58.957C77.936 59.2152 78.0672 59.5622 78.1392 59.998L77.022 60.1504C76.9712 59.8034 76.8231 59.5326 76.5776 59.3379C76.3364 59.1432 75.9937 59.0459 75.5493 59.0459C75.0246 59.0459 74.6501 59.1326 74.4258 59.3062C74.2015 59.4797 74.0894 59.6828 74.0894 59.9155C74.0894 60.0636 74.1359 60.1969 74.229 60.3154C74.3221 60.4382 74.4681 60.5397 74.667 60.6201C74.7812 60.6624 75.1177 60.7598 75.6763 60.9121C76.4845 61.1279 77.0474 61.3057 77.3647 61.4453C77.6864 61.5807 77.9382 61.7796 78.1201 62.042C78.3021 62.3044 78.3931 62.6302 78.3931 63.0195C78.3931 63.4004 78.2809 63.7601 78.0566 64.0986C77.8366 64.4329 77.5171 64.6932 77.0981 64.8794C76.6792 65.0614 76.2052 65.1523 75.6763 65.1523C74.8003 65.1523 74.1317 64.9704 73.6704 64.6064C73.2134 64.2425 72.9214 63.703 72.7944 62.9878ZM84.3662 62.8291L85.5469 62.9751C85.3607 63.6649 85.0158 64.2002 84.5122 64.5811C84.0086 64.9619 83.3654 65.1523 82.5825 65.1523C81.5965 65.1523 80.8136 64.8498 80.2339 64.2446C79.6584 63.6353 79.3706 62.7826 79.3706 61.6865C79.3706 60.5524 79.6626 59.6722 80.2466 59.0459C80.8306 58.4196 81.5881 58.1064 82.519 58.1064C83.4204 58.1064 84.1567 58.4132 84.728 59.0269C85.2993 59.6405 85.585 60.5037 85.585 61.6167C85.585 61.6844 85.5828 61.786 85.5786 61.9214H80.5513C80.5936 62.6619 80.8031 63.229 81.1797 63.6226C81.5563 64.0161 82.026 64.2129 82.5889 64.2129C83.0078 64.2129 83.3654 64.1029 83.6616 63.8828C83.9578 63.6628 84.1927 63.3115 84.3662 62.8291ZM80.6147 60.9819H84.3789C84.3281 60.4149 84.1842 59.9896 83.9473 59.7061C83.5833 59.266 83.1115 59.0459 82.5317 59.0459C82.007 59.0459 81.5648 59.2215 81.2051 59.5728C80.8496 59.924 80.6528 60.3937 80.6147 60.9819ZM86.9751 65V58.2588H88.0034V59.2808C88.2658 58.8026 88.507 58.4873 88.7271 58.335C88.9513 58.1826 89.1968 58.1064 89.4634 58.1064C89.8485 58.1064 90.2399 58.2292 90.6377 58.4746L90.2441 59.5347C89.9648 59.3696 89.6855 59.2871 89.4062 59.2871C89.1566 59.2871 88.9323 59.3633 88.7334 59.5156C88.5345 59.6637 88.3927 59.8711 88.3081 60.1377C88.1812 60.5439 88.1177 60.9883 88.1177 61.4707V65H86.9751ZM90.8599 62.9878L91.9897 62.8101C92.0532 63.2629 92.2288 63.6099 92.5166 63.8511C92.8086 64.0923 93.2148 64.2129 93.7354 64.2129C94.2601 64.2129 94.6494 64.1071 94.9033 63.8955C95.1572 63.6797 95.2842 63.4279 95.2842 63.1401C95.2842 62.882 95.172 62.6789 94.9478 62.5308C94.7912 62.4292 94.4019 62.3001 93.7798 62.1436C92.9419 61.932 92.36 61.75 92.0342 61.5977C91.7126 61.4411 91.4671 61.2274 91.2979 60.9565C91.1328 60.6815 91.0503 60.3789 91.0503 60.0488C91.0503 59.7484 91.118 59.4712 91.2534 59.2173C91.3931 58.9591 91.5814 58.7454 91.8184 58.5762C91.9961 58.445 92.2373 58.335 92.542 58.2461C92.8509 58.153 93.181 58.1064 93.5322 58.1064C94.0612 58.1064 94.5246 58.1826 94.9224 58.335C95.3244 58.4873 95.6206 58.6947 95.811 58.957C96.0015 59.2152 96.1326 59.5622 96.2046 59.998L95.0874 60.1504C95.0366 59.8034 94.8885 59.5326 94.6431 59.3379C94.4019 59.1432 94.0591 59.0459 93.6147 59.0459C93.09 59.0459 92.7155 59.1326 92.4912 59.3062C92.2669 59.4797 92.1548 59.6828 92.1548 59.9155C92.1548 60.0636 92.2013 60.1969 92.2944 60.3154C92.3875 60.4382 92.5335 60.5397 92.7324 60.6201C92.8467 60.6624 93.1831 60.7598 93.7417 60.9121C94.55 61.1279 95.1128 61.3057 95.4302 61.4453C95.7518 61.5807 96.0036 61.7796 96.1855 62.042C96.3675 62.3044 96.4585 62.6302 96.4585 63.0195C96.4585 63.4004 96.3464 63.7601 96.1221 64.0986C95.902 64.4329 95.5825 64.6932 95.1636 64.8794C94.7446 65.0614 94.2707 65.1523 93.7417 65.1523C92.8657 65.1523 92.1971 64.9704 91.7358 64.6064C91.2788 64.2425 90.9868 63.703 90.8599 62.9878ZM101.791 65V55.6943H103.022V65H101.791ZM105.053 65V58.2588H106.082V59.2173C106.577 58.4767 107.292 58.1064 108.227 58.1064C108.633 58.1064 109.006 58.1805 109.344 58.3286C109.687 58.4725 109.943 58.6629 110.112 58.8999C110.282 59.1369 110.4 59.4183 110.468 59.7441C110.51 59.9557 110.531 60.326 110.531 60.855V65H109.389V60.8994C109.389 60.4339 109.344 60.0869 109.255 59.8584C109.167 59.6257 109.008 59.4416 108.779 59.3062C108.555 59.1665 108.291 59.0967 107.986 59.0967C107.499 59.0967 107.078 59.2511 106.723 59.5601C106.371 59.869 106.196 60.4551 106.196 61.3184V65H105.053ZM114.784 63.978L114.949 64.9873C114.628 65.055 114.34 65.0889 114.086 65.0889C113.671 65.0889 113.35 65.0233 113.121 64.8921C112.893 64.7609 112.732 64.5895 112.639 64.3779C112.546 64.1621 112.499 63.7114 112.499 63.0259V59.1475H111.661V58.2588H112.499V56.5894L113.635 55.9038V58.2588H114.784V59.1475H113.635V63.0894C113.635 63.4152 113.654 63.6247 113.692 63.7178C113.735 63.8109 113.8 63.8849 113.889 63.9399C113.982 63.995 114.113 64.0225 114.283 64.0225C114.41 64.0225 114.577 64.0076 114.784 63.978ZM120.522 62.8291L121.703 62.9751C121.517 63.6649 121.172 64.2002 120.668 64.5811C120.165 64.9619 119.522 65.1523 118.739 65.1523C117.753 65.1523 116.97 64.8498 116.39 64.2446C115.815 63.6353 115.527 62.7826 115.527 61.6865C115.527 60.5524 115.819 59.6722 116.403 59.0459C116.987 58.4196 117.744 58.1064 118.675 58.1064C119.577 58.1064 120.313 58.4132 120.884 59.0269C121.456 59.6405 121.741 60.5037 121.741 61.6167C121.741 61.6844 121.739 61.786 121.735 61.9214H116.708C116.75 62.6619 116.959 63.229 117.336 63.6226C117.713 64.0161 118.182 64.2129 118.745 64.2129C119.164 64.2129 119.522 64.1029 119.818 63.8828C120.114 63.6628 120.349 63.3115 120.522 62.8291ZM116.771 60.9819H120.535C120.484 60.4149 120.34 59.9896 120.104 59.7061C119.74 59.266 119.268 59.0459 118.688 59.0459C118.163 59.0459 117.721 59.2215 117.361 59.5728C117.006 59.924 116.809 60.3937 116.771 60.9819ZM123.131 65V58.2588H124.16V59.2808C124.422 58.8026 124.663 58.4873 124.883 58.335C125.108 58.1826 125.353 58.1064 125.62 58.1064C126.005 58.1064 126.396 58.2292 126.794 58.4746L126.4 59.5347C126.121 59.3696 125.842 59.2871 125.562 59.2871C125.313 59.2871 125.089 59.3633 124.89 59.5156C124.691 59.6637 124.549 59.8711 124.464 60.1377C124.337 60.5439 124.274 60.9883 124.274 61.4707V65H123.131ZM131.872 64.1685C131.449 64.5282 131.041 64.7821 130.647 64.9302C130.258 65.0783 129.839 65.1523 129.39 65.1523C128.65 65.1523 128.08 64.9725 127.683 64.6128C127.285 64.2489 127.086 63.7855 127.086 63.2227C127.086 62.8926 127.16 62.5921 127.308 62.3213C127.46 62.0462 127.657 61.8262 127.898 61.6611C128.144 61.4961 128.419 61.3713 128.724 61.2866C128.948 61.2274 129.286 61.1702 129.739 61.1152C130.662 61.0052 131.341 60.874 131.777 60.7217C131.781 60.5651 131.783 60.4657 131.783 60.4233C131.783 59.9578 131.675 59.6299 131.459 59.4395C131.167 59.1813 130.734 59.0522 130.158 59.0522C129.621 59.0522 129.223 59.1475 128.965 59.3379C128.711 59.5241 128.523 59.8563 128.4 60.3345L127.283 60.1821C127.384 59.7039 127.551 59.3188 127.784 59.0269C128.017 58.7306 128.353 58.5042 128.793 58.3477C129.234 58.1868 129.743 58.1064 130.323 58.1064C130.899 58.1064 131.366 58.1742 131.726 58.3096C132.086 58.445 132.35 58.6164 132.52 58.8237C132.689 59.0269 132.807 59.285 132.875 59.5981C132.913 59.7928 132.932 60.144 132.932 60.6519V62.1753C132.932 63.2375 132.955 63.9103 133.002 64.1938C133.053 64.4731 133.15 64.7419 133.294 65H132.101C131.982 64.763 131.906 64.4858 131.872 64.1685ZM131.777 61.6167C131.362 61.786 130.74 61.9299 129.911 62.0483C129.441 62.116 129.109 62.1922 128.914 62.2769C128.719 62.3615 128.569 62.4863 128.463 62.6514C128.358 62.8122 128.305 62.992 128.305 63.1909C128.305 63.4956 128.419 63.7495 128.647 63.9526C128.88 64.1558 129.219 64.2573 129.663 64.2573C130.103 64.2573 130.495 64.1621 130.837 63.9717C131.18 63.777 131.432 63.5125 131.593 63.1782C131.715 62.9201 131.777 62.5392 131.777 62.0356V61.6167ZM139.108 62.5308L140.232 62.6768C140.109 63.4512 139.794 64.0584 139.286 64.4985C138.783 64.9344 138.163 65.1523 137.426 65.1523C136.504 65.1523 135.761 64.8519 135.198 64.251C134.64 63.6458 134.36 62.7804 134.36 61.6548C134.36 60.9269 134.481 60.29 134.722 59.7441C134.963 59.1982 135.329 58.7899 135.82 58.519C136.315 58.244 136.853 58.1064 137.433 58.1064C138.165 58.1064 138.764 58.2926 139.229 58.665C139.694 59.0332 139.993 59.5579 140.124 60.2393L139.013 60.4106C138.907 59.9578 138.719 59.6172 138.448 59.3887C138.182 59.1602 137.858 59.0459 137.477 59.0459C136.902 59.0459 136.434 59.2533 136.074 59.668C135.715 60.0785 135.535 60.7301 135.535 61.623C135.535 62.5286 135.708 63.1867 136.055 63.5972C136.402 64.0076 136.855 64.2129 137.414 64.2129C137.862 64.2129 138.237 64.0754 138.537 63.8003C138.838 63.5252 139.028 63.1021 139.108 62.5308ZM143.704 63.978L143.869 64.9873C143.548 65.055 143.26 65.0889 143.006 65.0889C142.591 65.0889 142.27 65.0233 142.041 64.8921C141.812 64.7609 141.652 64.5895 141.559 64.3779C141.465 64.1621 141.419 63.7114 141.419 63.0259V59.1475H140.581V58.2588H141.419V56.5894L142.555 55.9038V58.2588H143.704V59.1475H142.555V63.0894C142.555 63.4152 142.574 63.6247 142.612 63.7178C142.655 63.8109 142.72 63.8849 142.809 63.9399C142.902 63.995 143.033 64.0225 143.203 64.0225C143.33 64.0225 143.497 64.0076 143.704 63.978Z" fill="black"/>
</g>
<defs>
<clipPath id="clip0">
<rect width="244" height="90" fill="white"/>
</clipPath>
</defs>
</svg>
