<?xml version="1.0" encoding="utf-8"?>
<!-- Generator: Adobe Illustrator 27.0.0, SVG Export Plug-In . SVG Version: 6.00 Build 0)  -->
<svg version="1.1" id="Layer_1" xmlns="http://www.w3.org/2000/svg" xmlns:xlink="http://www.w3.org/1999/xlink" x="0px" y="0px"
	 width="142px" height="45px" viewBox="0 0 142 45" style="enable-background:new 0 0 142 45;" xml:space="preserve">
<style type="text/css">
	.st0{display:none;}
	.st1{display:inline;}
	.st2{fill:#FFFFFF;}
	.st3{fill:#929497;}
	.st4{fill:#5FC323;}
	.st5{fill:none;}
	.st6{enable-background:new    ;}
	.st7{fill:#231F20;}
	.st8{fill:none;stroke:#231F20;stroke-width:0.4744;stroke-miterlimit:10;}
</style>
<g class="st0">
	<path class="st1" d="M113.3,35.4h-2.1v-1h5.3v1h-2.1v5.2h-1.2L113.3,35.4L113.3,35.4z M117.6,40.6v-3.5c0.2-0.1,0.5-0.2,0.8-0.2
		c0.2,0,0.5,0,0.7,0.1l0.3-0.9c-0.3-0.1-0.6-0.1-1-0.1c-0.9,0-1.6,0.3-1.9,0.6v4C116.5,40.6,117.6,40.6,117.6,40.6z M123.2,36.2v3.5
		c-0.3,0.1-0.6,0.2-0.9,0.2c-0.9,0-1.1-0.4-1.1-1.2v-2.5h-1.1V39c0,1.1,0.6,1.8,2.1,1.8c1,0,1.7-0.3,2.2-0.5v-4.1H123.2z
		 M125.3,40.1c0,0,0.6,0.7,1.8,0.7c1.1,0,1.7-0.6,1.7-1.4c0-1.5-2.2-1.4-2.2-2c0-0.3,0.3-0.4,0.6-0.4c0.7,0,1.1,0.4,1.1,0.4l0.4-0.8
		c0,0-0.5-0.5-1.5-0.5s-1.7,0.5-1.7,1.3c0,1.5,2.2,1.4,2.2,2c0,0.3-0.3,0.4-0.6,0.4c-0.7,0-1.2-0.5-1.2-0.5L125.3,40.1z M129.7,39
		c0,1.5,1.3,1.7,1.9,1.7c0.2,0,0.3,0,0.3,0v-1c0,0-0.1,0-0.2,0c-0.3,0-0.9-0.1-0.9-0.9v-1.7h1v-1h-1v-1.3h-1.1V39z M139.8,40.6v-3.5
		c0.2-0.1,0.5-0.2,0.8-0.2c0.2,0,0.5,0,0.7,0.1l0.3-0.9c-0.3-0.1-0.6-0.1-1-0.1c-0.9,0-1.6,0.3-1.9,0.6v4
		C138.7,40.6,139.8,40.6,139.8,40.6z M144.1,36.1c-1.5,0-2.4,1.1-2.4,2.3c0,1.3,0.9,2.3,2.4,2.3c1.2,0,1.8-0.7,1.8-0.7l-0.4-0.8
		c0,0-0.6,0.6-1.3,0.6c-0.8,0-1.4-0.6-1.4-1.4c0-0.8,0.5-1.4,1.3-1.4c0.7,0,1.2,0.5,1.2,0.5l0.5-0.8
		C145.8,36.7,145.3,36.1,144.1,36.1 M136.3,39h-2.1l-0.6,1.6h-1.2l2.2-6.1h1.2l2.2,6.1h-1.2L136.3,39z M136,38.1l-0.7-2l-0.7,2H136z
		"/>
</g>
<g>
	<path class="st2" d="M30.9,44c-7.4,0-13.7-5-15.4-12.1v-0.1l-1.3-0.1c-4.6-0.2-8.1-4-8.1-8.6V1.4h124.8c2.9,0,5.3,2.4,5.3,5.3v32.2
		c0,2.9-2.4,5.3-5.3,5.3L30.9,44L30.9,44z"/>
	<path class="st3" d="M130.8,1.5c2.8,0,5.1,2.3,5.1,5.1v32.2c0,2.8-2.3,5.1-5.1,5.1H30.9h-0.1l0,0c-7.3,0-13.5-5-15.1-12l-0.1-0.3
		h-0.3l-1.2-0.1c-4.5-0.2-8-3.9-8-8.4V1.5H130.8 M130.8,1.2H5.8v21.9c0,4.7,3.6,8.5,8.3,8.8l1.2,0.1c1.6,7,7.9,12.2,15.5,12.2l0,0
		l0,0h99.9c3,0,5.4-2.4,5.4-5.4V6.5C136.2,3.6,133.9,1.2,130.8,1.2L130.8,1.2z"/>
</g>
<g>
	<path class="st4" d="M10.3,5.7v17.4c0,2.8,2.2,5,4.9,5.2c-0.1-7.5,5.2-14.1,12.7-15.5c0.9-0.2,1.8-0.3,2.7-0.3
		c7.5,0,13.9,5.4,15.2,12.7c0.2,1,0.3,2,0.2,3c2.7-0.2,4.9-2.4,4.9-5.2V5.7H10.3z"/>
	<path d="M25.7,27.9c0-2.8,2.2-5,5-5s5,2.2,5,5H25.7z M18.8,27.9c0,6.5,5.3,11.8,11.8,11.8c3.2,0,6.1-1.2,8.3-3.4l-2.4-2.4
		c-1.6,1.6-3.7,2.5-5.9,2.5c-4.6,0-8.4-3.7-8.4-8.4c0-4.6,3.7-8.4,8.4-8.4c4.6,0,8.4,3.7,8.4,8.4h3.3c0-6.5-5.3-11.8-11.8-11.8
		C24.1,16.1,18.8,21.4,18.8,27.9"/>
</g>
<rect x="55.7" y="19.5" class="st5" width="81.5" height="11.8"/>
<g class="st6">
	<path class="st7" d="M60.8,27.7l-2.3-7.2h1l1.1,3.9c0.1,0.4,0.2,0.8,0.3,1.2s0.2,0.8,0.4,1.2l0,0c0.1-0.4,0.2-0.8,0.3-1.2
		c0.1-0.4,0.2-0.8,0.3-1.2l1.1-3.9h0.9l-2.3,7.2H60.8z"/>
	<path class="st7" d="M67,27.8c-0.4,0-0.7-0.1-1-0.2s-0.6-0.3-0.8-0.5c-0.2-0.2-0.4-0.5-0.5-0.9c-0.1-0.3-0.2-0.7-0.2-1.2
		s0.1-0.8,0.2-1.2c0.1-0.3,0.3-0.6,0.5-0.9c0.2-0.2,0.5-0.4,0.8-0.6c0.3-0.1,0.6-0.2,0.9-0.2s0.6,0.1,0.9,0.2s0.5,0.3,0.7,0.5
		s0.3,0.5,0.4,0.8s0.1,0.7,0.1,1c0,0.1,0,0.2,0,0.3c0,0.1,0,0.2,0,0.2h-3.6c0,0.6,0.2,1,0.5,1.4c0.3,0.3,0.7,0.5,1.2,0.5
		c0.3,0,0.5,0,0.7-0.1s0.4-0.2,0.6-0.3l0.3,0.6c-0.2,0.1-0.5,0.3-0.8,0.4C67.7,27.8,67.3,27.8,67,27.8z M65.3,24.6h2.8
		c0-0.5-0.1-1-0.3-1.2c-0.2-0.3-0.6-0.4-1-0.4c-0.2,0-0.4,0-0.5,0.1c-0.2,0.1-0.3,0.2-0.5,0.3c-0.1,0.1-0.3,0.3-0.3,0.5
		C65.4,24.1,65.3,24.3,65.3,24.6z"/>
	<path class="st7" d="M70.2,27.7v-5.3h0.7l0.1,1l0,0c0.2-0.3,0.4-0.6,0.7-0.8c0.3-0.2,0.5-0.3,0.8-0.3c0.2,0,0.4,0,0.6,0.1l-0.2,0.8
		c-0.1,0-0.2-0.1-0.2-0.1c-0.1,0-0.2,0-0.3,0c-0.2,0-0.5,0.1-0.7,0.3c-0.2,0.2-0.5,0.5-0.6,1v3.4h-0.9V27.7z"/>
	<path class="st7" d="M74.5,21.3c-0.2,0-0.3-0.1-0.4-0.2s-0.2-0.2-0.2-0.4c0-0.2,0.1-0.3,0.2-0.4s0.3-0.2,0.4-0.2s0.3,0.1,0.4,0.2
		s0.2,0.2,0.2,0.4c0,0.2-0.1,0.3-0.2,0.4C74.8,21.2,74.7,21.3,74.5,21.3z M74,27.7v-5.3h0.9v5.3H74z"/>
	<path class="st7" d="M76.9,27.7v-4.6h-0.7v-0.7l0.7-0.1v-0.8c0-0.6,0.1-1,0.4-1.3s0.6-0.5,1.2-0.5c0.2,0,0.3,0,0.5,0
		c0.1,0,0.3,0.1,0.4,0.1l-0.2,0.7c-0.2-0.1-0.4-0.1-0.6-0.1c-0.5,0-0.7,0.3-0.7,1v0.8H79v0.7h-1.1v4.6h-1V27.7z"/>
	<path class="st7" d="M80.4,21.3c-0.2,0-0.3-0.1-0.4-0.2s-0.2-0.2-0.2-0.4c0-0.2,0.1-0.3,0.2-0.4s0.3-0.2,0.4-0.2s0.3,0.1,0.4,0.2
		s0.2,0.2,0.2,0.4c0,0.2-0.1,0.3-0.2,0.4C80.7,21.2,80.5,21.3,80.4,21.3z M79.9,27.7v-5.3h0.9v5.3H79.9z"/>
	<path class="st7" d="M84.7,27.8c-0.4,0-0.7-0.1-1-0.2s-0.6-0.3-0.8-0.5s-0.4-0.5-0.5-0.9c-0.1-0.3-0.2-0.7-0.2-1.2s0.1-0.8,0.2-1.2
		c0.1-0.3,0.3-0.6,0.5-0.9c0.2-0.2,0.5-0.4,0.8-0.6c0.3-0.1,0.6-0.2,0.9-0.2s0.6,0.1,0.9,0.2s0.5,0.3,0.7,0.5s0.3,0.5,0.4,0.8
		s0.1,0.7,0.1,1c0,0.1,0,0.2,0,0.3c0,0.1,0,0.2,0,0.2h-3.6c0,0.6,0.2,1,0.5,1.4s0.7,0.5,1.2,0.5c0.3,0,0.5,0,0.7-0.1
		s0.4-0.2,0.6-0.3l0.3,0.6c-0.2,0.1-0.5,0.3-0.8,0.4C85.4,27.8,85.1,27.8,84.7,27.8z M83.1,24.6h2.8c0-0.5-0.1-1-0.3-1.2
		c-0.2-0.3-0.6-0.4-1-0.4c-0.2,0-0.4,0-0.5,0.1c-0.2,0.1-0.3,0.2-0.5,0.3c-0.1,0.1-0.3,0.3-0.3,0.5S83.1,24.3,83.1,24.6z"/>
	<path class="st7" d="M89.8,27.8c-0.7,0-1.2-0.2-1.6-0.7s-0.6-1.2-0.6-2.1c0-0.4,0.1-0.8,0.2-1.2c0.1-0.3,0.3-0.6,0.5-0.9
		s0.5-0.4,0.7-0.6c0.3-0.1,0.6-0.2,0.9-0.2s0.6,0.1,0.8,0.2s0.5,0.3,0.7,0.5v-0.9v-2.1h0.9v7.8h-0.8v-0.5l0,0
		c-0.2,0.2-0.5,0.4-0.7,0.5C90.4,27.8,90.1,27.8,89.8,27.8z M90,27.1c0.2,0,0.5-0.1,0.7-0.2s0.4-0.3,0.7-0.6v-2.8
		c-0.2-0.2-0.4-0.4-0.7-0.4C90.5,23,90.3,23,90.1,23c-0.2,0-0.4,0.1-0.6,0.1s-0.3,0.2-0.5,0.4c-0.1,0.2-0.2,0.4-0.3,0.6
		c-0.1,0.3-0.2,0.6-0.2,0.9c0,0.6,0.1,1.1,0.4,1.5S89.5,27.1,90,27.1z"/>
	<path class="st7" d="M96.3,27.7v-7.2h2c0.4,0,0.8,0,1.1,0.1s0.6,0.2,0.8,0.4c0.2,0.2,0.4,0.4,0.5,0.7c0.1,0.3,0.2,0.6,0.2,1
		s-0.1,0.7-0.2,1s-0.3,0.5-0.5,0.7s-0.5,0.3-0.8,0.4s-0.7,0.1-1.1,0.1h-1.2v2.9h-0.8V27.7z M97.2,24.1h1.1c0.6,0,1.1-0.1,1.4-0.4
		c0.3-0.2,0.5-0.6,0.5-1.1s-0.2-0.9-0.5-1.1s-0.8-0.3-1.4-0.3h-1L97.2,24.1L97.2,24.1z"/>
	<path class="st7" d="M102.4,27.7v-5.3h0.7l0.1,1l0,0c0.2-0.3,0.4-0.6,0.7-0.8c0.3-0.2,0.5-0.3,0.8-0.3c0.2,0,0.4,0,0.6,0.1
		l-0.2,0.8c-0.1,0-0.2-0.1-0.2-0.1c-0.1,0-0.2,0-0.3,0c-0.2,0-0.5,0.1-0.7,0.3c-0.2,0.2-0.5,0.5-0.6,1v3.4h-0.9V27.7z"/>
	<path class="st7" d="M106.7,21.3c-0.2,0-0.3-0.1-0.4-0.2s-0.2-0.2-0.2-0.4c0-0.2,0.1-0.3,0.2-0.4s0.3-0.2,0.4-0.2s0.3,0.1,0.4,0.2
		s0.2,0.2,0.2,0.4c0,0.2-0.1,0.3-0.2,0.4C107,21.2,106.8,21.3,106.7,21.3z M106.2,27.7v-5.3h0.9v5.3H106.2z"/>
	<path class="st7" d="M110,27.7l-1.9-5.3h0.9l1,3c0.1,0.3,0.2,0.5,0.2,0.8c0.1,0.3,0.2,0.5,0.2,0.8l0,0c0.1-0.3,0.2-0.5,0.2-0.8
		c0.1-0.3,0.2-0.5,0.2-0.8l1-3h0.9l-1.9,5.3H110z"/>
	<path class="st7" d="M115,27.8c-0.4,0-0.8-0.1-1.1-0.4c-0.3-0.3-0.4-0.6-0.4-1.1c0-0.6,0.3-1,0.8-1.3s1.3-0.5,2.5-0.7
		c0-0.2,0-0.3,0-0.5s-0.1-0.3-0.2-0.4s-0.2-0.2-0.3-0.3c-0.1-0.1-0.3-0.1-0.5-0.1c-0.3,0-0.6,0.1-0.9,0.2s-0.5,0.2-0.7,0.4l-0.3-0.6
		c0.2-0.2,0.5-0.3,0.9-0.5s0.7-0.2,1.2-0.2c0.6,0,1.1,0.2,1.4,0.6s0.4,0.9,0.4,1.6v3.3h-0.7l-0.1-0.6l0,0c-0.3,0.2-0.5,0.4-0.8,0.5
		C115.7,27.8,115.3,27.8,115,27.8z M115.3,27.1c0.3,0,0.5-0.1,0.7-0.2s0.5-0.3,0.7-0.5v-1.5c-0.4,0.1-0.8,0.1-1.1,0.2
		c-0.3,0.1-0.5,0.2-0.7,0.3c-0.2,0.1-0.3,0.2-0.4,0.4c-0.1,0.1-0.1,0.3-0.1,0.5c0,0.3,0.1,0.5,0.3,0.7C114.8,27,115,27.1,115.3,27.1
		z"/>
	<path class="st7" d="M121.4,27.8c-0.3,0-0.7-0.1-1-0.2s-0.6-0.3-0.8-0.5c-0.2-0.2-0.4-0.5-0.5-0.9c-0.1-0.3-0.2-0.7-0.2-1.2
		c0-0.4,0.1-0.8,0.2-1.2c0.1-0.3,0.3-0.6,0.6-0.9c0.2-0.2,0.5-0.4,0.8-0.5s0.6-0.2,1-0.2c0.3,0,0.6,0.1,0.9,0.2
		c0.2,0.1,0.5,0.3,0.7,0.4l-0.5,0.6c-0.2-0.1-0.3-0.3-0.5-0.3c-0.2-0.1-0.4-0.1-0.6-0.1s-0.5,0-0.7,0.1s-0.4,0.2-0.5,0.4
		c-0.1,0.2-0.3,0.4-0.3,0.7c-0.1,0.3-0.1,0.5-0.1,0.8s0,0.6,0.1,0.8c0.1,0.2,0.2,0.5,0.3,0.6c0.1,0.2,0.3,0.3,0.5,0.4
		s0.4,0.1,0.7,0.1c0.2,0,0.5-0.1,0.7-0.2s0.4-0.2,0.6-0.4l0.4,0.6c-0.2,0.2-0.5,0.4-0.8,0.5S121.7,27.8,121.4,27.8z"/>
	<path class="st7" d="M124.4,30c-0.1,0-0.2,0-0.3,0c-0.1,0-0.2,0-0.3-0.1l0.2-0.7c0.1,0,0.1,0,0.2,0s0.1,0,0.2,0
		c0.3,0,0.6-0.1,0.7-0.3c0.2-0.2,0.3-0.5,0.5-0.8l0.1-0.4l-2.1-5.4h0.9l1.1,3c0.1,0.2,0.2,0.5,0.3,0.7s0.2,0.5,0.3,0.8l0,0
		c0.1-0.2,0.2-0.5,0.2-0.8c0.1-0.3,0.1-0.5,0.2-0.7l1-3h0.9l-2,5.8c-0.1,0.3-0.2,0.5-0.3,0.7c-0.1,0.2-0.3,0.4-0.4,0.6
		s-0.3,0.3-0.5,0.4C124.9,30,124.7,30,124.4,30z"/>
</g>
<g>
	<g>
		<path d="M72,7.7v8.1h-2.2V7.7h-3.2v-2H75v2.1L72,7.7L72,7.7z"/>
		<path d="M82.4,15.8l-2.2-3.2h-1.7v3.2h-2.3V5.7h4.7c2.4,0,3.8,1.2,3.8,3.3l0,0c0,1.6-0.9,2.7-2.2,3.2l2.5,3.6
			C85,15.8,82.4,15.8,82.4,15.8z M82.4,9.1c0-1-0.7-1.4-1.7-1.4h-2.2v3h2.3C81.8,10.7,82.4,10,82.4,9.1L82.4,9.1z"/>
		<path d="M90.6,16c-2.8,0-4.4-1.5-4.4-4.5V5.7h2.2v5.7c0,1.6,0.9,2.5,2.2,2.5c1.3,0,2.2-0.9,2.2-2.5V5.7H95v5.7
			C95.1,14.5,93.4,16,90.6,16z"/>
		<path d="M100.8,16c-1.5,0-3.1-0.6-4.3-1.6l1.3-1.6c1,0.8,1.9,1.2,3.1,1.2c1,0,1.4-0.4,1.4-1l0,0c0-0.6-0.4-0.9-2-1.3
			c-2-0.5-3.3-1.1-3.3-3.2l0,0c0-1.8,1.5-3.1,3.5-3.1c1.5,0,2.8,0.5,3.8,1.3l-1.1,1.8c-0.9-0.7-1.8-1-2.7-1s-1.3,0.4-1.3,0.9l0,0
			c0,0.7,0.5,0.9,2.2,1.3c2.1,0.6,3.2,1.2,3.2,3.1l0,0C104.5,14.9,103,16,100.8,16z"/>
		<path d="M110.1,7.7v8.1h-2.2V7.7h-3.1v-2h8.4v2.1L110.1,7.7L110.1,7.7z"/>
		<path d="M120.3,12.8h-5.4c0.2,1,1,1.5,1.9,1.5c0.8,0,1.2-0.2,1.9-0.8l1.2,1.1c-0.8,0.9-1.8,1.4-3.2,1.4c-2.4,0-4.1-1.6-4.1-4l0,0
			c0-2.2,1.6-4,3.8-4c2.6,0,3.8,2,3.8,4.2l0,0C120.3,12.4,120.3,12.5,120.3,12.8z M116.4,9.7c-0.9,0-1.5,0.7-1.7,1.6h3.3
			C118,10.4,117.4,9.7,116.4,9.7z"/>
	</g>
</g>
<line class="st8" x1="57.5" y1="31.6" x2="129.5" y2="31.6"/>
<g>
	<g class="st6">
		<path d="M63.8,36.2c0,0.2,0,0.4-0.1,0.6c-0.1,0.2-0.2,0.3-0.3,0.5c-0.2,0.2-0.4,0.3-0.6,0.4c-0.2,0.1-0.5,0.1-0.9,0.1h-0.6v1.8
			h-0.6v-4.8H62c0.3,0,0.5,0,0.7,0.1c0.2,0,0.4,0.1,0.5,0.2c0.2,0.1,0.3,0.3,0.4,0.5C63.8,35.7,63.8,35.9,63.8,36.2z M63.2,36.2
			c0-0.2,0-0.3-0.1-0.4c-0.1-0.1-0.1-0.2-0.3-0.3c-0.1-0.1-0.2-0.1-0.4-0.1c-0.1,0-0.3,0-0.5,0h-0.6v1.9h0.5c0.3,0,0.5,0,0.6-0.1
			c0.2,0,0.3-0.1,0.4-0.2c0.1-0.1,0.2-0.2,0.2-0.3C63.1,36.5,63.2,36.3,63.2,36.2z"/>
		<path d="M67.5,37.7c0,0.6-0.1,1-0.5,1.4s-0.7,0.5-1.2,0.5s-0.9-0.2-1.2-0.5s-0.4-0.8-0.4-1.4c0-0.6,0.1-1,0.4-1.4
			c0.3-0.3,0.7-0.5,1.2-0.5s0.9,0.2,1.2,0.5S67.5,37.2,67.5,37.7z M66.9,37.7c0-0.5-0.1-0.8-0.3-1c-0.2-0.2-0.4-0.3-0.8-0.3
			c-0.3,0-0.6,0.1-0.8,0.3c-0.2,0.2-0.3,0.6-0.3,1c0,0.5,0.1,0.8,0.3,1c0.2,0.2,0.4,0.3,0.8,0.3c0.3,0,0.6-0.1,0.8-0.3
			S66.9,38.2,66.9,37.7z"/>
		<path d="M73,35.9l-0.9,3.6h-0.6l-0.9-2.8l-0.9,2.8h-0.6l-0.9-3.6h0.6l0.7,2.8l0.9-2.8h0.5l0.9,2.8l0.6-2.8H73z"/>
		<path d="M76.9,37.8h-2.6c0,0.2,0,0.4,0.1,0.6s0.2,0.3,0.3,0.4c0.1,0.1,0.2,0.2,0.4,0.2c0.2,0.1,0.3,0.1,0.5,0.1s0.5,0,0.7-0.1
			s0.4-0.2,0.5-0.3l0,0v0.7c-0.2,0.1-0.4,0.2-0.6,0.2c-0.2,0.1-0.4,0.1-0.7,0.1c-0.6,0-1.1-0.2-1.4-0.5s-0.5-0.8-0.5-1.4
			c0-0.6,0.2-1.1,0.5-1.4c0.3-0.3,0.7-0.5,1.3-0.5c0.5,0,0.9,0.1,1.1,0.4s0.4,0.7,0.4,1.2C76.9,37.5,76.9,37.8,76.9,37.8z
			 M76.3,37.3c0-0.3-0.1-0.6-0.2-0.7s-0.4-0.3-0.7-0.3c-0.3,0-0.6,0.1-0.8,0.3c-0.2,0.2-0.3,0.4-0.3,0.7H76.3z"/>
		<path d="M80,36.6L80,36.6c-0.1,0-0.2,0-0.3,0c-0.1,0-0.2,0-0.3,0c-0.2,0-0.4,0-0.5,0.1c-0.2,0.1-0.3,0.2-0.5,0.3v2.6h-0.6V36h0.6
			v0.5c0.2-0.2,0.5-0.3,0.6-0.4c0.2-0.1,0.4-0.1,0.6-0.1c0.1,0,0.2,0,0.2,0s0.1,0,0.2,0L80,36.6L80,36.6z"/>
		<path d="M83.6,37.8H81c0,0.2,0,0.4,0.1,0.6s0.2,0.3,0.3,0.4c0.1,0.1,0.2,0.2,0.4,0.2c0.2,0.1,0.3,0.1,0.5,0.1s0.5,0,0.7-0.1
			s0.4-0.2,0.5-0.3l0,0v0.7c-0.2,0.1-0.4,0.2-0.6,0.2c-0.2,0.1-0.4,0.1-0.7,0.1c-0.6,0-1.1-0.2-1.4-0.5s-0.5-0.8-0.5-1.4
			c0-0.6,0.2-1.1,0.5-1.4c0.3-0.3,0.7-0.5,1.3-0.5c0.5,0,0.9,0.1,1.1,0.4s0.4,0.7,0.4,1.2C83.6,37.5,83.6,37.8,83.6,37.8z M83,37.3
			c0-0.3-0.1-0.6-0.2-0.7c-0.2-0.2-0.4-0.3-0.7-0.3c-0.3,0-0.6,0.1-0.8,0.3S81,37,81,37.3H83z"/>
		<path d="M87.4,39.5h-0.6v-0.4c-0.2,0.1-0.4,0.3-0.5,0.4c-0.2,0.1-0.4,0.1-0.6,0.1c-0.4,0-0.8-0.2-1-0.5c-0.3-0.3-0.4-0.8-0.4-1.4
			c0-0.3,0-0.6,0.1-0.8s0.2-0.4,0.4-0.6c0.1-0.2,0.3-0.3,0.5-0.4c0.2-0.1,0.4-0.1,0.6-0.1s0.4,0,0.5,0.1c0.1,0,0.3,0.1,0.5,0.2v-1.6
			h0.6L87.4,39.5L87.4,39.5z M86.8,38.6v-2.1c-0.2-0.1-0.3-0.1-0.4-0.2c-0.1,0-0.3,0-0.4,0c-0.3,0-0.6,0.1-0.8,0.4
			c-0.2,0.2-0.3,0.6-0.3,1s0.1,0.8,0.2,1s0.4,0.3,0.7,0.3c0.2,0,0.3,0,0.5-0.1S86.7,38.8,86.8,38.6z"/>
		<path d="M94.1,37.7c0,0.3,0,0.6-0.1,0.8s-0.2,0.4-0.3,0.6c-0.2,0.2-0.3,0.3-0.5,0.4c-0.2,0.1-0.4,0.1-0.6,0.1s-0.4,0-0.5-0.1
			s-0.3-0.1-0.5-0.2v0.2H91v-5h0.5v1.8c0.2-0.1,0.3-0.3,0.5-0.3c0.2-0.1,0.4-0.1,0.6-0.1c0.4,0,0.8,0.2,1,0.5
			C94,36.7,94.1,37.1,94.1,37.7z M93.5,37.7c0-0.4-0.1-0.8-0.2-1s-0.4-0.3-0.7-0.3c-0.2,0-0.4,0-0.5,0.1c-0.2,0.1-0.3,0.2-0.5,0.3
			v2.1c0.2,0.1,0.3,0.1,0.4,0.2c0.1,0,0.3,0,0.4,0c0.3,0,0.6-0.1,0.8-0.3S93.5,38.2,93.5,37.7z"/>
		<path d="M98.1,35.9L96,40.8h-0.6l0.7-1.5l-1.4-3.4h0.7l1.1,2.7l1.1-2.7C97.6,35.9,98.1,35.9,98.1,35.9z"/>
	</g>
	<g>
		<path d="M126.5,38.3c0,0-0.4,0.4-1.1,0.4s-1.2-0.5-1.2-1.2s0.4-1.2,1.2-1.2c0.6,0,1,0.4,1,0.4l0.4-0.6c0,0-0.4-0.5-1.4-0.5
			c-1.2,0-2,0.9-2,2s0.8,2,2,2c1,0,1.5-0.6,1.5-0.6L126.5,38.3z"/>
		<path d="M121.3,39.3l-0.1,0.2l0,0h0.7v-1.4c0-0.2,0-0.3,0-0.4c-0.2,0.3-0.4,0.6-0.4,0.9C121.4,38.9,121.3,39.1,121.3,39.3"/>
		<path d="M121.9,36.6L121.9,36.6C121.9,36.6,121.9,36.5,121.9,36.6v-0.7H121v2.6l0,0c0.3-0.4,0.5-1,0.9-1.3
			c0.2-0.2,0.4-0.4,0.6-0.5s0.4-0.2,0.6-0.3v-0.5c0,0-0.1,0-0.2,0C122.5,35.8,122,36.1,121.9,36.6"/>
		<polygon points="100.6,34.4 100.6,35.2 102.2,35.2 102.2,39.5 103.2,39.5 103.2,35.2 104.9,35.2 104.9,34.4 		"/>
		<path d="M109.5,37.5c0,0.6-0.4,1.2-1.1,1.2c-0.4,0-0.5-0.3-0.5-0.7v-2.1H107v2.3c0,1,0.5,1.4,1.2,1.4c0.6,0,1.1-0.3,1.2-0.6v0.4
			h0.9v-3.6h-0.9L109.5,37.5L109.5,37.5z"/>
		<path d="M111.8,36.9c0-0.3,0.3-0.4,0.4-0.4c0.5,0,0.9,0.4,0.9,0.4l0.4-0.7c0,0-0.4-0.4-1.2-0.4s-1.4,0.4-1.4,1.1
			c0,1.2,1.8,1.1,1.8,1.7c0,0.3-0.3,0.4-0.4,0.4c-0.6,0-1-0.4-1-0.4l-0.4,0.6c0,0,0.5,0.5,1.4,0.5s1.4-0.5,1.4-1.1
			C113.6,37.3,111.8,37.3,111.8,36.9"/>
		<path d="M114.8,38.1v-1.4h0.8V36h-0.8v-1.1H114v1.8v1.5c0,1.2,1,1.4,1.5,1.4c0.2,0,0.3,0,0.3,0l0.3-0.8h-0.4
			C115.3,38.8,114.8,38.7,114.8,38.1"/>
		<path d="M117.8,37.4l0.4-1.3c0.1-0.3,0.3-0.8,0.3-0.8l0,0c0,0,0.1,0.5,0.2,0.8l0.4,1.3H117.8z M118.9,34.4h-1l-1.8,5.1h1l0.4-1.3
			h1.8l0.4,1.3h0.9h0.1l-0.1-0.2L118.9,34.4z"/>
		<path d="M105.3,36.6L105.3,36.6C105.3,36.6,105.3,36.5,105.3,36.6v-0.7h-0.9v3.6h0.9v-1.4c0-0.3,0-0.4,0.1-0.6
			c0.2-0.5,0.6-0.8,1-0.8c0.1,0,0.3,0,0.3,0v-1c0,0-0.1,0-0.2,0C106,35.8,105.5,36.1,105.3,36.6"/>
	</g>
</g>
</svg>
